<?xml version="1.0" encoding="UTF-8"?>
<svg id="Layer_1" data-name="Layer 1" xmlns="http://www.w3.org/2000/svg" viewBox="0 0 568.54 101.52">
  <g>
    <path d="M300.09,17.02c2.54,3.4,4.78,6.4,7.04,9.4,3.29,4.37,6.58,8.73,9.87,13.1,1.7,2.26,1.65,4.55-.19,6.64-4.19,4.77-8.41,9.52-12.61,14.29-2.11,2.39-4.2,4.79-6.27,7.16,.3,.49,.67,.37,.98,.37,6.09-.01,12.18-.03,18.27-.05,.62,0,1.23-.03,1.85-.06,4.04-.15,6.9-1.86,8.11-5.92,.55-1.83,1.09-3.66,1.46-5.54,.36-1.81,.52-1.9,2.43-2.1,.95-.1,1.9-.3,2.85-.35,1.19-.07,1.78,.52,1.8,1.71,0,.41-.08,.82-.15,1.22-1.01,5.8-1.56,11.66-2.01,17.53-.17,2.15-1.41,3.35-3.58,3.33-5.61-.06-11.22-.2-16.83-.28-6.02-.08-12.04-.18-18.06-.17-2.39,0-4.78,.32-7.17,.43-1.56,.07-1.66-.05-2.2-1.54-1.37-3.79-1.35-3.77,1.31-6.76,6.7-7.57,13.38-15.16,20.06-22.74,.14-.15,.21-.37,.37-.49,.92-.73,.66-1.34,.02-2.18-5.46-7.19-10.87-14.41-16.29-21.63-1.4-1.86-2.74-3.76-4.19-5.58-.81-1.02-.98-1.96-.51-3.21,1.12-2.99,.5-3.12,4.44-3.22,9.37-.25,18.74-.55,28.1-.91,3.21-.12,6.41-.5,9.62-.72,2.66-.18,3.49,.56,3.54,3.21,.09,4.93,.48,9.84,.9,14.75,.19,2.23,.18,2.88-2.29,3.1-.75,.07-1.47,.29-2.22,.38-1.37,.15-1.69-.05-1.92-1.45-.26-1.62-.57-3.23-1.06-4.8-1.26-4.04-4.09-6.13-8.22-6.63-2.93-.35-5.87-.27-8.82-.27-2.65,0-5.3,0-8.44,0Z" style="fill: #282828;"/>
    <path d="M504.23,76.11c.5,6.96,1,13.92,1.5,20.87,.04,.55,.1,1.09,.14,1.63,.08,.95-.3,1.55-1.28,1.77-2.33,.54-4.69,.95-7.07,1.12-1.88,.14-3.08-1.03-3.04-2.97,.08-4.65,.24-9.3,.36-13.95,.29-10.87,.53-21.75,.88-32.62,.12-3.55,.71-7.05,1.9-10.45,2.98-8.53,9.76-14.42,20.43-13.61,6.52,.5,11.48,3.72,15.06,9.07,4.13,6.18,5.24,13.11,4.67,20.39-.23,3.01-.84,5.97-2.12,8.72-3.47,7.46-9.42,11.41-17.5,12.43-2.82,.35-5.39-.12-7.89-1.47-1.86-1.01-3.74-1.98-5.51-3.14-.23,.03-.63-.48-.65,.21-.02,.66-.18,1.34,.12,1.98Z" style="fill: #282828;"/>
    <path d="M377.18,43.81c1.35-2.37,2.11-4.85,3-7.26,.85-2.3,1.59-4.65,2.39-6.98,.7-2.05,2.53-2.52,4.08-1.04,1.48,1.42,2.85,2.94,4.16,4.53,.84,1.03,1.03,1.96,.48,3.17-3.23,7.09-6.46,14.19-10.58,20.81-1.16,1.87-1.19,3.53-.43,5.38,.81,1.96,2.29,3.2,4.33,3.74,1.67,.44,3.37,.51,5.09,.27,.88-.12,1.76-.27,2.64-.34,1.46-.12,1.99,.41,1.98,1.88-.02,3.45-3.72,8.78-6.95,10.04-.66,.26-1.34,.25-2.02,.21-4.9-.32-8.79-3.52-10.04-8.27-.25-.97-.45-1.95-.71-3.04-.85,.38-1.17,1.1-1.62,1.65-1.92,2.33-3.98,4.5-6.33,6.4-1.12,.91-2.33,1.67-3.64,2.29-5.39,2.55-10.2,1.27-13.65-3.6-2.6-3.68-3.88-7.85-4.33-12.24-.79-7.83,.05-15.44,3.86-22.5,2.15-3.99,4.95-7.37,9.14-9.37,4.67-2.22,8.7-1.53,12.38,2.08,3.2,3.14,4.83,6.07,6.74,12.19Z" style="fill: #282828;"/>
    <path d="M486.71,52.43c.3,5.53-1,10.99-4.14,15.91-3.24,5.07-7.6,8.81-13.65,10.01-6.09,1.21-11.97,.67-17.21-3.09-4.17-2.99-6.79-7.16-8.14-11.98-2.23-7.97-1.78-15.85,2.05-23.32,3.34-6.51,8.55-10.91,15.81-12.15,9.32-1.59,17.44,1.82,22.26,10.51,1.96,3.53,3.25,7.72,3.02,14.11Z" style="fill: #282828;"/>
    <path d="M411.77,52.72c.19-4.1,.4-8.2,.58-12.3,.06-1.37,.03-1.38-1.3-1.32-3.67,.17-6.78,1.45-8.98,4.54-.51,.72-1.12,1.38-1.66,2.09-.47,.61-1.09,.79-1.81,.72-2-.18-3.4-2.09-2.99-4.07,1.57-7.52,6.67-12.15,14.32-13.16,4.23-.56,8.47-.25,12.7-.34,3.41-.07,6.84,.16,10.23-.43,1.21-.21,2.41-.46,3.62-.67,1.83-.33,3.01,.77,2.54,2.56-.69,2.65-1.9,5.12-3.23,7.5-.58,1.04-1.72,1.21-2.88,1.2-3.28-.03-6.57,0-9.85-.02-1.24,0-1.56-.17-1.84,1.49-.91,5.39-1.96,10.75-2.94,16.12-.13,.73-.21,1.5-.18,2.24,.14,2.79,1.42,4.78,4.13,5.76,2.76,1,5.62,1.04,8.5,.95,.61-.02,1.23-.11,1.84-.13,1.69-.06,2.23,.44,2.29,2.12,.04,1.2-.41,2.29-.98,3.3-1.22,2.17-2.85,4.01-4.72,5.63-1.17,1.02-2.57,1.49-4.15,1.5-7.77,.03-12.95-4.65-13.63-12.36-.32-3.63,.11-7.24,.24-10.86,.02-.68,.1-1.36,.16-2.05,0,0-.02,0-.02,0Z" style="fill: #282828;"/>
    <path d="M550.69,28.31c2.47,.15,4.88,.57,7.16,1.57,1.52,.67,1.68,.8,1.5,2.45-.44,4.21-.93,8.42-1.42,12.62-.61,5.22-1.27,10.44-1.83,15.67-.47,4.37,1.44,6.25,5.84,5.83,1.29-.12,2.56-.41,3.84-.64,1.95-.35,2.86,.43,2.75,2.39,0,.14-.05,.27-.08,.4-.98,4.02-3.16,7.21-6.63,9.49-.81,.53-1.71,.43-2.59,.35-5.2-.48-8.72-3.41-10.11-8.46-.56-2.04-.9-4.13-.93-6.26-.14-10.73-.28-21.46-.41-32.19,0-.14,0-.27,0-.41,.03-2.41,.54-2.9,2.91-2.82Z" style="fill: #282828;"/>
    <path d="M466.36,24c-1.59,.04-2.82-.63-4.09-1.07-.48-.17-.7-.66-.64-1.18,.05-.47,.15-.94,.29-1.39,1.78-5.94,3.35-11.94,4.71-17.99,.5-2.22,1.55-2.8,3.69-2.07,1.29,.44,2.57,.9,3.84,1.4,1.66,.65,2.1,1.41,1.84,3.14-.07,.46-.25,.92-.43,1.35-2.27,5.32-4.59,10.63-6.81,15.97-.52,1.24-1.22,1.92-2.4,1.84Z" style="fill: #282828;"/>
    <path d="M504.23,76.11c-.43-.67-.44-1.45-.34-2.15,.13-.85,.55-.49,.86-.03-.87,.56-.18,1.5-.53,2.19Z" style="fill: #a4a4a4;"/>
    <path d="M528.57,50.08c.11,3.8-.55,7.41-2.44,10.69-2.86,4.97-7,7.98-12.93,7.88-3.31-.06-6.22-1.38-8.86-3.34-.54-.4-.81-.83-.76-1.54,.42-6.28,.98-12.55,3.63-18.38,1.62-3.57,3.92-6.56,7.79-7.98,5.65-2.08,10.61,.2,12.67,5.84,.81,2.22,.99,4.53,.91,6.82Z" style="fill: #fff;"/>
    <path d="M351.96,60.79c.05-5.72,1.05-10.49,3.38-14.94,.96-1.84,2.26-3.42,3.8-4.79,.72-.64,1.54-1.13,2.43-1.5,3.02-1.27,5.84-.44,7.73,2.26,1.78,2.52,2.31,5.5,3.15,8.38,.59,2,.17,3.65-.93,5.36-2.25,3.51-4.48,7.04-7.53,9.93-1.59,1.51-3.28,2.87-5.4,3.62-2.74,.97-4.73,.12-5.73-2.58-.77-2.08-.95-4.26-.91-5.73Z" style="fill: #fff;"/>
    <path d="M477.27,48.65c-.51,7.51-3.27,13.9-9.51,18.42-2.34,1.69-5,2.75-8,2.49-3.69-.31-5.95-2.46-7.28-5.74-1.55-3.78-1.25-7.62-.17-11.44,1.27-4.5,3.55-8.4,7.03-11.57,2-1.82,4.26-3.09,6.88-3.87,3.28-.98,7.54,.65,9.45,4.35,1.19,2.3,1.63,4.76,1.61,7.34Z" style="fill: #fff;"/>
  </g>
  <g>
    <path d="M53.17,75.86c-5.88-.01-10.76,.31-15.63,.92-2.43,.3-2.9-.17-2.62-2.66,.09-.75,.15-1.5,.25-2.25,.18-1.34,.4-1.55,1.78-1.72,1.24-.16,2.51-.22,3.74-.46,3.92-.75,4.06-1.64,3.29-5-.85-3.71-2.16-7.31-3.24-10.97-.28-.95-.72-1.4-1.82-1.39-5.52,.04-11.05-.16-16.56,.48-.37,.04-.74,.18-1.11,.17-.82-.02-1.23,.38-1.48,1.14-.68,2.01-1.45,4-2.13,6.01-.36,1.07-.69,2.14-1.13,3.18-.39,.92-.6,1.91-.63,2.93-.08,2.22,.61,3.13,2.8,3.43,.99,.14,2,.12,3.01,.13,1.51,.02,3.02-.04,4.52,.03,1.24,.06,1.59,.43,1.51,1.65-.09,1.37-.31,2.74-.51,4.1-.1,.64-.52,.98-1.19,.95-.5-.02-1-.03-1.5-.08-7.33-.7-14.67-.74-22.01-.34-2.5,.14-2.72-.13-2.33-2.62,.08-.49,.27-.98,.31-1.47,.11-1.63,.55-2.67,2.53-2.93,2.65-.35,3.96-2.57,4.88-4.79,1.79-4.34,3.37-8.76,5.05-13.14,2.19-5.73,4.43-11.44,6.59-17.17,1.5-3.98,2.98-7.97,4.51-11.93,1.45-3.73,2.75-7.52,4.33-11.2,.24-.56,.5-.98,1.11-1.14,2.13-.55,4.23-1.18,6.37-1.66,1.38-.31,1.62-.1,2,1.26,1.74,6.21,3.44,12.42,5.21,18.62,1.34,4.69,2.74,9.36,4.13,14.04,1.25,4.2,2.49,8.4,3.8,12.58,1.03,3.28,2.08,6.56,3.23,9.8,1.04,2.92,3.25,4.48,6.29,5,3.3,.57,3.29,.61,2.93,3.87-.03,.25-.03,.5-.07,.75-.32,2.04-.56,2.23-2.69,2.16-2.82-.1-5.65-.2-7.49-.27Z" style="fill: #282828;"/>
    <path d="M75.76,71.8c.07,1.18,.1,2.09,.17,3,.36,5.06,.72,10.13,1.09,15.19,.16,2.19,.36,4.37,.55,6.56,.12,1.41,0,1.62-1.36,2-2.36,.66-4.8,.92-7.23,1.16-1.2,.12-2.46-1.2-2.5-2.53-.04-1.38,0-2.76,.04-4.14,.24-8.66,.4-17.31,.75-25.97,.26-6.46,.11-12.93,.72-19.37,.52-5.48,2.29-10.53,5.95-14.73,3-3.45,6.91-5.35,11.46-5.8,5.53-.55,10.6,.61,14.94,4.26,2.48,2.08,4.4,4.6,5.8,7.51,2.79,5.81,3.74,11.95,2.89,18.3-.98,7.38-4.17,13.45-10.95,17.18-3.54,1.95-7.41,2.62-11.39,2.71-1.41,.03-2.62-.74-3.86-1.33-2.36-1.12-4.65-2.36-7.08-3.99Z" style="fill: #282828;"/>
    <path d="M217.54,42.89c1.95-4.16,4.33-8.03,7.52-11.38,1.05-1.1,2.24-1.99,3.41-2.93,2.58-2.08,4.61-1.66,7.39,.13,2.58,1.66,3.95,4.31,5.06,7.06,2.02,5.02,2.65,10.3,2.66,15.66,.04,15.13,.02,30.26,.01,45.39,0,.38,.03,.76-.04,1.13-.26,1.38-1.34,2.14-2.72,1.87-2.53-.49-4.99-1.2-7.35-2.24-1.61-.71-1.71-.9-1.52-2.56,1.19-10.34,2.46-20.67,3.56-31.02,.66-6.17,1.23-12.36,.97-18.58-.05-1.33-.19-2.65-.52-3.91-.75-2.77-2.41-3.64-4.84-1.96-2.38,1.64-4.05,3.92-5.57,6.29-3.79,5.88-6.42,12.29-8.41,18.99-.4,1.36-.28,2.73-.31,4.11-.02,1.38-.02,2.76-.02,4.14-.01,2.32-1.49,3.69-3.8,3.43-2.06-.24-4.08-.68-6.01-1.45-1.29-.52-1.5-.77-1.14-2.12,.69-2.59,1.5-5.16,2.29-7.73,.75-2.45,1.53-4.9,2.33-7.33,.36-1.1,.32-2.23,.43-3.35,.23-2.31,.44-4.62,.6-6.94,.09-1.31,.04-2.63-.3-3.93-.74-2.87-2.34-4.22-5.31-4.42-1.9-.13-3.75,.16-5.6,.54-1.95,.39-3.14-.84-2.66-2.79,.91-3.67,2.95-6.59,5.95-8.86,.79-.6,1.64-.84,2.63-.77,4.54,.32,8.14,2.74,9.6,7.4,.6,1.92,1.15,3.85,1.06,5.89,.21,.65,.06,1.33,.12,1.99,.03,.34,.11,.62,.51,.27Z" style="fill: #282828;"/>
    <path d="M123.87,52.47c-1.31-1.02-2.55-2.13-3.6-3.46-4.02-5.12-4.36-13.6,4.28-18.23,5.32-2.85,11.01-3.69,16.94-3.39,1.94,.1,3.87,.33,5.77,.81,.77,.2,1.14,.55,1.39,1.3,.64,1.93,.66,3.96,.96,5.93,.18,1.13-1.21,2.08-2.52,1.79-1.59-.36-3.19-.64-4.82-.81-3.57-.38-7.01,.12-10.33,1.46-1.7,.69-3.22,1.66-4.41,3.11-.54,.65-.86,1.39-1.08,2.17-.51,1.8-.06,3.02,1.53,4.03,1.75,1.11,3.51,1.64,5.66,.8,3.17-1.24,6.56-1.66,9.95-1.85,2.13-.12,2.88,.6,2.79,2.71-.07,1.56-.25,3.12-.45,4.68-.14,1.07-.64,1.73-1.85,2.01-3.02,.71-6.03,1.02-9.13,.76-3.52-.3-6.7,.88-9.43,3.05-2.15,1.71-1.99,4.18,.13,5.92,1.59,1.31,3.48,1.68,5.43,1.81,2.72,.18,5.39-.2,8.01-.88,3.53-.91,6.92-2.17,10.08-4.01,.78-.45,1.48-.65,2.28-.17,.8,.48,.7,1.25,.64,2.01-.19,2.4-.96,4.66-1.68,6.93-.19,.62-.61,1.09-1.2,1.39-3.55,1.87-7.14,3.65-11.09,4.55-2.46,.56-4.89,.15-7.3-.11-3.44-.36-6.79-1.16-9.72-3.19-3.45-2.38-4.7-5.68-4.31-9.76,.42-4.37,2.97-7.46,6.05-10.24,.36-.33,.85-.52,1.02-1.12Z" style="fill: #282828;"/>
    <path d="M171.01,38.02c-3.87-.2-7.28,.89-9.84,4.09-.62,.78-1.21,1.6-1.86,2.36-.78,.92-1.6,1.05-2.67,.49-1.69-.88-2.31-1.96-1.92-3.63,.81-3.48,2.25-6.6,4.98-9.06,2.85-2.56,6.29-3.55,9.95-3.99,4.25-.51,8.53-.24,12.8-.24,4.22,0,8.41-.11,12.55-1.02,1.99-.44,3.08,.83,2.36,2.72-.83,2.16-1.76,4.29-2.72,6.39-.54,1.18-1.55,1.71-2.89,1.7-3.39-.04-6.78-.02-10.18,0-1.36,0-1.4,.02-1.65,1.38-.88,4.68-1.72,9.36-2.6,14.04-.23,1.23-.51,2.45-.53,3.71-.07,3.68,1.73,6.03,5.37,6.84,2.78,.62,5.59,.72,8.43,.48,2.45-.21,3.23,.75,2.59,3.12-.61,2.24-2.04,3.99-3.51,5.7-.4,.47-.86,.91-1.32,1.33-1.59,1.45-3.42,2.26-5.66,1.98-2.83-.35-5.54-.97-7.83-2.83-2.53-2.05-3.75-4.78-4.35-7.88-.34-1.73-.45-3.48-.36-5.25,.29-5.14,.62-10.28,.85-15.42,.1-2.3,.02-4.61,.02-7Z" style="fill: #282828;"/>
    <path d="M17.82,14.8c.16,2.63-.96,4.77-2.64,6.63-2.2,2.44-4.83,4.36-7.65,6.02-1.11,.65-3.64-.25-4.13-1.42-.41-.99-.24-1.66,.72-2.46,1.1-.92,2.19-1.84,3.17-2.89,.3-.32,.57-.65,.81-1.02,1.85-2.75,1.19-4.85-1.84-6.66-.53-.32-1.16-.47-1.75-.67-.67-.22-1.32-.44-1.39-1.31-.07-.95-.16-1.94,.75-2.56,1.55-1.05,3.15-1.99,5-2.5,2.89-.8,5.02,.34,6.8,2.43,1.56,1.83,2.31,3.99,2.15,6.41Z" style="fill: #282828;"/>
    <path d="M237.64,5.97c-.05,.18-.1,.49-.22,.77-1.79,4.12-3.62,8.22-5.39,12.34-.61,1.43-1.16,2.89-1.86,4.28-.66,1.32-1.23,1.74-2.6,1.47-1.04-.2-2.06-.54-3.06-.88-.7-.24-.96-.77-.7-1.49,1.72-4.7,2.75-9.6,4.05-14.42,.4-1.5,.71-3.03,1.06-4.55,.35-1.54,1.01-2.14,2.43-1.71,1.85,.55,3.64,1.32,5.4,2.11,.75,.33,.89,1.16,.9,2.07Z" style="fill: #282828;"/>
    <path d="M217.54,42.89c-.08,.35-.15,.71-.7,.9-.03-1.09-.17-2.12,.07-3.16,.53,.66-.17,1.67,.64,2.26Z" style="fill: #746e6e;"/>
    <path d="M31.19,22.26c2.42,8,4.71,15.62,7.01,23.24-2.19,.66-11.83,.99-15.44,.55,2.77-7.83,5.53-15.62,8.43-23.79Z" style="fill: #fff;"/>
    <path d="M75.48,60.17c.31-4.36,.87-9.1,2.42-13.63,1.19-3.47,2.97-6.65,6.06-8.86,2.95-2.1,6.24-2.64,9.66-1.62,3.24,.96,5.08,3.53,5.86,6.61,1.35,5.34,1.26,10.74-1.15,15.81-2.3,4.86-6.01,8.17-11.57,8.82-4.08,.47-7.63-1-10.87-3.36-.47-.34-.6-.75-.55-1.3,.06-.69,.08-1.38,.13-2.47Z" style="fill: #fff;"/>
  </g>
</svg>