<?xml version="1.0" encoding="UTF-8"?>
<svg id="Layer_2" data-name="Layer 2" xmlns="http://www.w3.org/2000/svg" viewBox="0 0 330 330">
  <g id="Layer_2-2" data-name="Layer 2">
    <g id="_500pxLogo" data-name="500pxLogo">
      <path d="M165.02,0C118.83,0,85.48,1.29,61.42,7.38c-.12,.03-.25,.06-.37,.09-.95,.24-1.88,.49-2.81,.75-.22,.06-.44,.12-.66,.19-.85,.24-1.68,.49-2.51,.75-.28,.09-.55,.17-.82,.26-.77,.25-1.53,.5-2.28,.76-.31,.11-.62,.22-.92,.33-.7,.25-1.41,.51-2.09,.77-.34,.13-.67,.27-1.01,.4-.64,.26-1.28,.51-1.91,.78-.4,.17-.78,.35-1.17,.52-.55,.25-1.1,.49-1.64,.74-.91,.43-1.79,.87-2.66,1.33-.28,.15-.55,.3-.82,.45-.62,.34-1.24,.68-1.85,1.03-.28,.16-.54,.33-.82,.5-.59,.35-1.17,.71-1.74,1.08-.26,.17-.51,.34-.76,.51-.58,.39-1.15,.78-1.71,1.18-.23,.16-.45,.33-.67,.49-.58,.43-1.14,.86-1.7,1.3-.19,.15-.38,.3-.56,.46-.59,.48-1.16,.97-1.73,1.48-.14,.13-.28,.25-.43,.38-.62,.56-1.23,1.14-1.82,1.73-.08,.08-.15,.15-.23,.23C3.44,48.21,0,89.44,0,165.01c0,151.24,13.75,164.99,164.98,164.99,46.19,0,79.54-1.29,103.6-7.38,.12-.03,.24-.06,.36-.09,.95-.24,1.89-.5,2.82-.76,.22-.06,.43-.12,.64-.18,.85-.24,1.69-.5,2.52-.75,.27-.08,.54-.17,.81-.26,.77-.25,1.54-.5,2.29-.76,.31-.11,.61-.22,.92-.33,.7-.25,1.41-.51,2.09-.77,.34-.13,.67-.27,1.01-.4,.64-.26,1.28-.51,1.91-.78,.39-.17,.77-.34,1.15-.51,.56-.25,1.12-.49,1.67-.75,.9-.43,1.79-.87,2.66-1.33,.28-.15,.55-.3,.83-.46,.62-.34,1.24-.67,1.84-1.02,.28-.16,.55-.33,.82-.5,.59-.35,1.17-.71,1.74-1.08,.26-.17,.51-.34,.76-.51,.58-.38,1.14-.77,1.7-1.17,.23-.16,.45-.33,.67-.5,.57-.43,1.14-.86,1.7-1.3,.19-.15,.38-.31,.57-.46,.59-.48,1.16-.97,1.73-1.47,.14-.13,.29-.25,.43-.38,.62-.56,1.22-1.14,1.82-1.72,.08-.08,.16-.15,.23-.23,22.3-22.35,25.74-63.59,25.74-139.15C330,13.75,316.25,0,165.02,0Z" style="fill-rule: evenodd;"/>
      <path d="M117.31,133.78c-17.23,.02-31.19,13.99-31.22,31.22,.02,17.23,13.98,31.2,31.22,31.22,17.23-.02,31.19-13.99,31.22-31.22-.02-17.23-13.98-31.2-31.22-31.22m0,55.78c-13.54,0-24.58-11.03-24.58-24.57s11.04-24.57,24.58-24.57,24.57,11.03,24.57,24.57-11.03,24.57-24.57,24.57m67.57-55.78c-17.23,.02-31.19,13.99-31.22,31.22,.02,17.23,13.98,31.2,31.22,31.22,17.23-.02,31.19-13.99,31.22-31.22-.02-17.23-13.99-31.19-31.22-31.22m0,55.78c-13.55,0-24.57-11.03-24.57-24.57s11.01-24.57,24.57-24.57,24.57,11.03,24.57,24.57-11.03,24.57-24.57,24.57m-121.24-37.06c-5.92-.86-11.94,.73-16.66,4.42v-16.55h28.05c.97,0,1.67-.18,1.67-3.05s-1.13-2.92-1.88-2.92h-31.05c-1.82,0-2.77,1.46-2.77,3.07v27.17c0,1.42,.91,1.91,2.58,2.23,1.47,.29,2.33,.13,2.98-.6l.06-.1c2.95-4.26,9.4-8.39,15.51-7.64,7.3,.9,13.18,6.72,13.99,13.85,1,8.66-5.22,16.49-13.88,17.49-.6,.07-1.2,.1-1.8,.1-6.63,0-12.42-4.26-14.84-10.45-.37-.92-.96-1.59-3.58-.65-2.39,.87-2.54,1.89-2.21,2.8,3.17,8.67,11.4,14.44,20.63,14.47,12.12-.07,21.89-9.95,21.83-22.07-.06-10.8-7.97-19.95-18.64-21.58m173.79-18.42c-8.4,.65-14.97,8.03-14.97,16.81v27.78c0,1.61,1.22,1.94,3.06,1.94s3.06-.32,3.06-1.94v-27.86c0-5.47,3.99-10.17,9.06-10.69,2.89-.31,5.77,.63,7.91,2.58,2.14,1.95,3.36,4.71,3.36,7.61,0,.84-.41,3.55-2.27,6.07-1.41,1.9-4.08,4.17-8.81,4.17h-.09c-1.2,0-2.24,.05-2.44,2.92-.14,1.94-.13,2.81,1.55,3.03,2.99,.42,6.01-.17,9.03-1.73,5.14-2.67,8.58-7.74,8.99-13.23,.36-4.74-1.36-9.4-4.72-12.76-3.35-3.34-8-5.05-12.72-4.7m40.92,16.28l11.33-11.33c.42-.41,1.38-1.38-.57-3.38-.84-.87-1.6-1.31-2.27-1.31h-.01c-.49,.01-.95,.23-1.26,.61l-11.36,11.36-11.34-11.41c-.92-.92-1.98-.7-3.36,.68-1.41,1.42-1.64,2.51-.72,3.42l11.34,11.4-11.11,11.11-.07,.07c-.27,.26-.68,.66-.68,1.31-.01,.66,.44,1.45,1.32,2.33,.73,.74,1.44,1.12,2.09,1.12,.72,0,1.19-.47,1.45-.73l11.15-11.14,11.39,11.4c.32,.31,.75,.48,1.19,.47h.02c.72,0,1.48-.42,2.27-1.23,1.27-1.35,1.49-2.46,.64-3.33,0,0-11.42-11.41-11.42-11.41Z" style="fill: #fff;"/>
    </g>
  </g>
</svg>