<?xml version="1.0" encoding="UTF-8"?>
<svg id="Layer_2" data-name="Layer 2" xmlns="http://www.w3.org/2000/svg" viewBox="0 0 330 330">
  <g id="Layer_2-2" data-name="Layer 2">
    <g id="BehanceLogo">
      <path d="M165.02,0C118.83,0,85.48,1.29,61.42,7.38c-.12,.03-.25,.06-.37,.09-.95,.24-1.88,.49-2.81,.75-.22,.06-.44,.12-.66,.19-.85,.24-1.68,.49-2.51,.75-.28,.09-.55,.17-.82,.26-.77,.25-1.53,.5-2.28,.76-.31,.11-.62,.22-.92,.33-.7,.25-1.41,.51-2.09,.77-.34,.13-.67,.27-1.01,.4-.64,.26-1.28,.51-1.91,.78-.4,.17-.78,.35-1.17,.52-.55,.25-1.1,.49-1.64,.74-.91,.43-1.79,.87-2.66,1.33-.28,.15-.55,.3-.82,.45-.62,.34-1.24,.68-1.85,1.03-.28,.16-.54,.33-.82,.5-.59,.35-1.17,.71-1.74,1.08-.26,.17-.51,.34-.76,.51-.58,.39-1.15,.78-1.71,1.18-.23,.16-.45,.33-.67,.49-.58,.43-1.14,.86-1.7,1.3-.19,.15-.38,.3-.56,.46-.59,.48-1.16,.97-1.73,1.48-.14,.13-.28,.25-.43,.38-.62,.56-1.23,1.14-1.82,1.73-.08,.08-.15,.15-.23,.23C3.44,48.21,0,89.44,0,165.01c0,151.24,13.75,164.99,164.98,164.99,46.19,0,79.54-1.29,103.6-7.38,.12-.03,.24-.06,.36-.09,.95-.24,1.89-.5,2.82-.76,.22-.06,.43-.12,.64-.18,.85-.24,1.69-.5,2.52-.75,.27-.08,.54-.17,.81-.26,.77-.25,1.54-.5,2.29-.76,.31-.11,.61-.22,.92-.33,.7-.25,1.41-.51,2.09-.77,.34-.13,.67-.27,1.01-.4,.64-.26,1.28-.51,1.91-.78,.39-.17,.77-.34,1.15-.51,.56-.25,1.12-.49,1.67-.75,.9-.43,1.79-.87,2.66-1.33,.28-.15,.55-.3,.83-.46,.62-.34,1.24-.67,1.84-1.02,.28-.16,.55-.33,.82-.5,.59-.35,1.17-.71,1.74-1.08,.26-.17,.51-.34,.76-.51,.58-.38,1.14-.77,1.7-1.17,.23-.16,.45-.33,.67-.5,.57-.43,1.14-.86,1.7-1.3,.19-.15,.38-.31,.57-.46,.59-.48,1.16-.97,1.73-1.47,.14-.13,.29-.25,.43-.38,.62-.56,1.22-1.14,1.82-1.72,.08-.08,.16-.15,.23-.23,22.3-22.35,25.74-63.59,25.74-139.15C330,13.75,316.25,0,165.02,0Z" style="fill: #0086ff; fill-rule: evenodd;"/>
      <path d="M195.51,120.38h51.97v-14.71h-51.97v14.71Zm25.57,29.7c-11.07-.61-20.54,7.87-21.15,18.94-.03,.47-.04,.94-.03,1.41h41.25c-2.75-15.68-9.76-20.35-20.35-20.35h.27Zm1.65,61.19c8.66,.5,16.72-4.43,20.21-12.37h22.55c-4.53,20.1-23.19,33.78-43.73,32.04-25.34,1.02-46.71-18.71-47.73-44.05-.08-2-.03-4.01,.15-6,0-67.38,97.76-69.71,92.95,6.19h-67.24c0,15.54,7.01,24.2,22.83,24.2Zm-101.48-2.89c12.37,0,20.9-4.68,20.9-17.33s-7.56-18.98-20.35-18.98h-30.8v36.3h30.25Zm-1.65-55.96c10.31,0,17.33-4.81,17.33-15.81s-8.25-15.13-19.39-15.13h-26.54v30.94h28.6Zm4.13-53.49c24.2,0,41.25,7.97,41.25,32.73,.8,12.03-6.34,23.18-17.6,27.5,14.62,4.2,24.28,18.11,23.1,33.28,0,25.85-20.62,38.23-45.38,38.23H62.68V98.93h61.05Z" style="fill: #fff; fill-rule: evenodd;"/>
    </g>
  </g>
</svg>