<?xml version="1.0" encoding="UTF-8"?>
<svg id="Layer_2" data-name="Layer 2" xmlns="http://www.w3.org/2000/svg" viewBox="0 0 1024 287.64">
  <g id="Layer_2-2" data-name="Layer 2">
    <g id="BuyMeACoffeeLogo">
      <path d="M0,46.02C0,20.61,20.61,0,46.02,0H977.98c25.42,0,46.02,20.61,46.02,46.02V241.62c0,25.42-20.6,46.02-46.02,46.02H46.02c-25.42,0-46.02-20.6-46.02-46.02V46.02Z" style="fill: #fd0;"/>
      <path d="M205.9,94.6l-.13-.07-.29-.09c.12,.1,.27,.16,.42,.16Z" style="fill: #0d0c22;"/>
      <path d="M207.75,107.75l-.14,.04,.14-.04Z" style="fill: #0d0c22;"/>
      <path d="M205.95,94.58s-.03,0-.05-.01c0,.01,0,.02,0,.03,.02,0,.03,0,.05-.02Z" style="fill: #0d0c22;"/>
      <path d="M205.9,94.6h.02s-.02,0-.02,0Z" style="fill: #0d0c22;"/>
      <path d="M207.64,107.73l.21-.12,.08-.04,.07-.08c-.13,.06-.26,.14-.36,.24Z" style="fill: #0d0c22;"/>
      <path d="M206.26,94.89l-.21-.2-.14-.08c.08,.13,.2,.23,.35,.27Z" style="fill: #0d0c22;"/>
      <path d="M153.93,222.5c-.17,.07-.31,.18-.42,.33l.13-.08c.09-.08,.22-.18,.29-.24Z" style="fill: #0d0c22;"/>
      <path d="M184.33,216.53c0-.19-.09-.15-.07,.52,0-.05,.02-.11,.03-.16,.01-.12,.02-.24,.04-.35Z" style="fill: #0d0c22;"/>
      <path d="M181.19,222.5c-.17,.07-.31,.18-.42,.33l.13-.08c.09-.08,.22-.18,.29-.24Z" style="fill: #0d0c22;"/>
      <path d="M132.52,223.93c-.13-.11-.28-.18-.45-.21,.13,.07,.27,.13,.36,.18l.09,.03Z" style="fill: #0d0c22;"/>
      <path d="M127.71,219.32c-.02-.2-.08-.38-.18-.55,.07,.18,.13,.36,.17,.55h0Z" style="fill: #0d0c22;"/>
      <path d="M160.06,136.81c-6.61,2.83-14.12,6.04-23.84,6.04-4.07,0-8.12-.57-12.04-1.66l6.73,69.06c.24,2.89,1.55,5.58,3.68,7.54,2.13,1.96,4.92,3.05,7.82,3.05,0,0,9.54,.5,12.72,.5,3.42,0,13.7-.5,13.7-.5,2.9,0,5.69-1.09,7.82-3.05,2.13-1.96,3.44-4.65,3.68-7.54l7.2-76.31c-3.22-1.1-6.47-1.83-10.13-1.83-6.34,0-11.44,2.18-17.34,4.7Z" style="fill: #fff;"/>
      <path d="M103.37,107.35l.11,.11,.07,.04c-.06-.06-.12-.11-.19-.15Z" style="fill: #0d0c22;"/>
      <path d="M218.64,100.98l-1.01-5.11c-.91-4.58-2.97-8.92-7.68-10.57-1.51-.53-3.22-.76-4.38-1.85-1.16-1.1-1.5-2.8-1.77-4.38-.49-2.9-.96-5.8-1.47-8.7-.44-2.49-.79-5.29-1.93-7.57-1.49-3.07-4.57-4.86-7.63-6.05-1.57-.59-3.18-1.08-4.8-1.49-7.66-2.02-15.71-2.76-23.59-3.19-9.46-.52-18.94-.36-28.38,.47-7.02,.64-14.42,1.41-21.1,3.84-2.44,.89-4.95,1.96-6.81,3.84-2.28,2.32-3.02,5.9-1.36,8.78,1.18,2.05,3.18,3.5,5.3,4.46,2.76,1.23,5.65,2.17,8.61,2.8,8.25,1.82,16.79,2.54,25.21,2.84,9.34,.38,18.69,.07,27.99-.91,2.3-.25,4.59-.56,6.88-.91,2.7-.41,4.43-3.94,3.63-6.4-.95-2.94-3.51-4.08-6.4-3.63-.43,.07-.85,.13-1.28,.19l-.31,.04c-.98,.12-1.96,.24-2.94,.35-2.02,.22-4.05,.4-6.08,.53-4.55,.32-9.12,.46-13.68,.47-4.48,0-8.97-.13-13.44-.42-2.04-.13-4.08-.3-6.11-.51-.92-.1-1.85-.2-2.77-.31l-.88-.11-.19-.03-.91-.13c-1.86-.28-3.71-.6-5.55-.99-.19-.04-.35-.14-.47-.29s-.18-.33-.18-.52,.06-.37,.18-.52,.28-.25,.47-.29h.03c1.59-.34,3.2-.63,4.81-.88,.54-.08,1.07-.17,1.61-.25h.01c1.01-.07,2.02-.25,3.02-.37,8.73-.91,17.51-1.22,26.27-.93,4.26,.12,8.51,.37,12.75,.8,.91,.09,1.82,.19,2.72,.3,.35,.04,.7,.09,1.05,.13l.7,.1c2.05,.31,4.09,.68,6.12,1.11,3.01,.65,6.87,.87,8.21,4.16,.42,1.05,.62,2.21,.85,3.3l.3,1.4s.01,.05,.02,.08c.71,3.3,1.42,6.6,2.13,9.91,.05,.24,.05,.5,0,.74-.05,.24-.15,.48-.29,.68-.14,.2-.33,.38-.54,.51-.21,.13-.45,.21-.7,.25h-.02l-.43,.06-.43,.06c-1.36,.18-2.72,.34-4.08,.5-2.68,.31-5.36,.57-8.05,.79-5.34,.44-10.69,.74-16.06,.87-2.73,.07-5.46,.11-8.19,.1-10.87,0-21.73-.64-32.53-1.89-1.17-.14-2.34-.29-3.51-.44,.91,.12-.66-.09-.98-.13-.74-.1-1.49-.21-2.23-.32-2.49-.37-4.97-.83-7.46-1.24-3.01-.5-5.89-.25-8.61,1.24-2.23,1.22-4.04,3.1-5.18,5.37-1.17,2.43-1.52,5.07-2.05,7.68-.53,2.61-1.34,5.41-1.03,8.09,.67,5.78,4.71,10.47,10.52,11.52,5.47,.99,10.96,1.79,16.47,2.48,21.65,2.65,43.51,2.97,65.23,.95,1.77-.17,3.53-.35,5.3-.54,.55-.06,1.11,0,1.63,.19,.52,.18,1,.48,1.39,.87,.39,.39,.7,.86,.88,1.39,.19,.52,.25,1.08,.2,1.63l-.55,5.34c-1.11,10.8-2.21,21.6-3.32,32.4-1.16,11.34-2.32,22.68-3.49,34.01-.33,3.19-.66,6.39-.99,9.58-.32,3.14-.36,6.38-.96,9.49-.94,4.88-4.25,7.88-9.07,8.98-4.42,1.01-8.93,1.53-13.47,1.58-5.02,.03-10.05-.2-15.07-.17-5.36,.03-11.93-.46-16.08-4.46-3.64-3.51-4.14-9-4.64-13.74-.66-6.28-1.32-12.57-1.96-18.85l-3.64-34.94-2.36-22.61c-.04-.37-.08-.74-.12-1.12-.28-2.7-2.19-5.34-5.2-5.2-2.58,.11-5.5,2.3-5.2,5.2l1.75,16.76,3.61,34.67c1.03,9.85,2.05,19.7,3.08,29.55,.2,1.89,.38,3.78,.59,5.67,1.13,10.31,9.01,15.87,18.76,17.44,5.7,.92,11.53,1.11,17.31,1.2,7.41,.12,14.89,.4,22.18-.94,10.8-1.98,18.9-9.19,20.06-20.38,.33-3.23,.66-6.46,.99-9.69,1.1-10.69,2.19-21.37,3.29-32.06l3.58-34.92,1.64-16c.08-.79,.42-1.54,.96-2.13,.54-.59,1.25-.99,2.04-1.14,3.09-.6,6.04-1.63,8.24-3.98,3.5-3.74,4.19-8.62,2.96-13.54Zm-116.17,3.45s-.04,.38-.08,.57c0-.28,0-.54,.08-.57Zm.3,2.32s.1,.08,.18,.2c-.12-.11-.19-.19-.18-.2h0Zm.29,.39c.11,.18,.16,.29,0,0h0Zm.59,.48h.01s.03,.03,.04,.05c-.02-.02-.03-.04-.05-.05h0Zm103.65-.72c-1.11,1.06-2.78,1.55-4.43,1.79-18.53,2.75-37.32,4.14-56.05,3.53-13.4-.46-26.67-1.95-39.93-3.82-1.3-.18-2.71-.42-3.6-1.38-1.68-1.81-.86-5.45-.42-7.63,.4-2,1.17-4.67,3.55-4.95,3.71-.44,8.03,1.13,11.7,1.69,4.42,.68,8.87,1.22,13.32,1.62,19.02,1.73,38.37,1.46,57.31-1.07,3.45-.46,6.89-1,10.32-1.62,3.06-.55,6.44-1.58,8.29,1.59,1.27,2.15,1.43,5.04,1.24,7.47-.06,1.06-.52,2.06-1.3,2.79h0Z" style="fill: #0d0c22;"/>
      <path d="M319.67,158.37c-1.08,2.06-2.57,3.86-4.46,5.39-1.89,1.53-4.1,2.77-6.63,3.73-2.52,.96-5.06,1.6-7.62,1.93-2.55,.33-5.03,.3-7.44-.09-2.4-.39-4.45-1.18-6.13-2.38l1.9-19.67c1.74-.6,3.93-1.21,6.58-1.84,2.64-.63,5.36-1.08,8.16-1.35,2.8-.27,5.44-.24,7.93,.09,2.49,.33,4.46,1.12,5.9,2.38,.78,.72,1.44,1.5,1.98,2.33,.54,.84,.87,1.71,.99,2.6,.3,2.51-.09,4.8-1.17,6.87Zm-27.49-41.9c1.26-.78,2.78-1.47,4.55-2.07,1.77-.6,3.59-1.02,5.45-1.26,1.86-.24,3.68-.27,5.45-.09,1.77,.18,3.34,.67,4.69,1.48,1.35,.81,2.36,1.98,3.02,3.5,.66,1.53,.84,3.46,.54,5.79-.24,1.86-.98,3.43-2.21,4.71-1.23,1.29-2.74,2.37-4.51,3.23-1.77,.87-3.65,1.56-5.63,2.06-1.99,.51-3.89,.89-5.72,1.12-1.83,.24-3.43,.39-4.78,.45-1.35,.06-2.24,.09-2.66,.09l1.8-19.04Zm37.23,29.19c-.96-2.09-2.25-3.94-3.87-5.52-1.62-1.59-3.55-2.74-5.77-3.46,.96-.78,1.91-2.01,2.84-3.68,.93-1.67,1.73-3.5,2.39-5.48,.66-1.98,1.11-3.97,1.35-5.97,.24-2.01,.15-3.73-.27-5.16-1.02-3.59-2.63-6.41-4.82-8.44-2.19-2.03-4.75-3.44-7.66-4.22-2.92-.78-6.13-.94-9.64-.49-3.52,.45-7.11,1.33-10.77,2.65,0-.3,.03-.61,.09-.94,.06-.33,.09-.67,.09-1.03,0-.9-.45-1.67-1.35-2.33-.9-.66-1.94-1.05-3.11-1.17-1.17-.12-2.31,.13-3.43,.76-1.11,.63-1.88,1.78-2.3,3.46-.48,5.39-.96,10.99-1.44,16.79-.48,5.81-.99,11.68-1.53,17.6-.54,5.93-1.08,11.81-1.62,17.65-.54,5.84-1.08,11.45-1.62,16.84,.18,1.62,.63,2.87,1.35,3.77,.72,.9,1.56,1.44,2.52,1.62,.96,.18,1.97,.01,3.02-.49,1.05-.51,1.97-1.39,2.75-2.65,2.4,1.32,5.11,2.17,8.11,2.56,3,.39,6.05,.39,9.15,0,3.09-.39,6.14-1.12,9.15-2.2,3-1.08,5.74-2.42,8.2-4.04,2.46-1.62,4.54-3.46,6.22-5.52,1.68-2.07,2.79-4.3,3.33-6.69,.54-2.46,.69-4.91,.45-7.36-.24-2.45-.84-4.73-1.8-6.83Z" style="fill: #0d0c23; fill-rule: evenodd;"/>
      <path d="M417.34,193.08c-.33,1.98-.8,4.06-1.4,6.24-.6,2.18-1.31,4.18-2.12,5.97-.81,1.8-1.71,3.24-2.7,4.35-.99,1.11-2.06,1.57-3.2,1.39-.9-.12-1.47-.69-1.71-1.71-.24-1.02-.24-2.28,0-3.77,.24-1.5,.7-3.19,1.39-5.08,.69-1.89,1.53-3.76,2.52-5.61,.99-1.86,2.12-3.64,3.38-5.34,1.26-1.7,2.58-3.13,3.96-4.26,.3,.36,.44,1.26,.41,2.69-.03,1.44-.21,3.14-.54,5.12Zm30.56-38.98c-.81-.9-1.8-1.41-2.98-1.53-1.17-.12-2.36,.54-3.56,1.98-.78,1.44-1.77,2.81-2.98,4.13-1.2,1.32-2.45,2.51-3.74,3.59-1.29,1.08-2.52,2.01-3.7,2.78-1.17,.78-2.09,1.35-2.75,1.71-.24-1.92-.38-3.98-.41-6.2-.03-2.22,.02-4.46,.14-6.73,.18-3.23,.55-6.5,1.13-9.79,.57-3.29,1.4-6.53,2.48-9.7,0-1.67-.39-3.04-1.17-4.09-.78-1.05-1.73-1.71-2.84-1.98-1.11-.27-2.25-.12-3.43,.45-1.17,.57-2.18,1.6-3.02,3.1-.72,1.98-1.55,4.19-2.48,6.65-.93,2.46-1.98,4.96-3.15,7.5-1.17,2.55-2.48,5.02-3.92,7.41-1.44,2.4-3.02,4.52-4.73,6.38-1.71,1.86-3.58,3.31-5.59,4.36-2.02,1.05-4.19,1.51-6.53,1.39-1.08-.3-1.86-1.11-2.34-2.43-.48-1.32-.77-2.96-.86-4.94-.09-1.98,0-4.15,.27-6.51,.27-2.36,.63-4.71,1.08-7.05,.45-2.34,.95-4.55,1.49-6.65,.54-2.1,1.05-3.86,1.53-5.3,.72-1.74,.72-3.19,0-4.36-.72-1.17-1.71-1.94-2.97-2.34-1.26-.39-2.59-.37-3.97,.05-1.38,.42-2.37,1.35-2.97,2.78-1.02,2.46-1.96,5.21-2.8,8.26-.84,3.05-1.52,6.21-2.03,9.48-.51,3.26-.8,6.5-.86,9.7,0,.21,0,.41,0,.61-1.31,3.48-2.56,6.11-3.74,7.87-1.53,2.28-3.26,3.26-5.18,2.96-.84-.36-1.4-1.2-1.67-2.51-.27-1.32-.36-2.93-.27-4.85,.09-1.91,.32-4.08,.68-6.51,.36-2.42,.81-4.94,1.35-7.54,.54-2.61,1.11-5.22,1.71-7.86,.6-2.63,1.14-5.12,1.62-7.45-.06-2.1-.68-3.7-1.85-4.8-1.17-1.11-2.81-1.54-4.91-1.3-1.44,.6-2.51,1.38-3.2,2.34-.69,.96-1.25,2.19-1.67,3.68-.24,.78-.6,2.34-1.08,4.67-.48,2.33-1.1,5.01-1.85,8.04-.75,3.03-1.64,6.18-2.66,9.48-1.02,3.29-2.16,6.27-3.42,8.94-1.26,2.66-2.65,4.8-4.15,6.42-1.5,1.62-3.12,2.28-4.87,1.98-.96-.18-1.58-1.17-1.85-2.96-.27-1.8-.31-4.01-.14-6.65,.18-2.63,.54-5.52,1.08-8.67,.54-3.14,1.1-6.12,1.67-8.94,.57-2.81,1.1-5.3,1.58-7.45,.48-2.16,.81-3.59,.99-4.31,0-1.74-.39-3.13-1.17-4.18-.78-1.05-1.73-1.71-2.84-1.98-1.11-.27-2.25-.12-3.42,.45-1.17,.57-2.18,1.6-3.02,3.1-.3,1.62-.69,3.49-1.17,5.61-.48,2.12-.95,4.31-1.4,6.56-.45,2.25-.87,4.45-1.26,6.6-.39,2.16-.68,4.04-.86,5.66-.12,1.26-.26,2.8-.4,4.62-.15,1.83-.23,3.76-.23,5.79s.15,4.06,.45,6.06c.3,2.01,.84,3.85,1.62,5.52,.78,1.68,1.88,3.05,3.29,4.13,1.41,1.08,3.2,1.68,5.36,1.8,2.22,.12,4.16-.04,5.81-.49,1.65-.45,3.15-1.15,4.51-2.11,1.35-.96,2.58-2.09,3.7-3.41,1.11-1.32,2.21-2.75,3.29-4.31,1.02,2.28,2.34,4.04,3.97,5.3,1.62,1.26,3.34,2.01,5.14,2.24,1.8,.24,3.64-.01,5.5-.76,1.86-.75,3.54-2.02,5.05-3.82,.99-1.1,1.92-2.35,2.8-3.74,.37,.65,.77,1.27,1.21,1.85,1.47,1.92,3.47,3.23,6,3.95,2.7,.72,5.34,.84,7.93,.36,2.58-.48,5.05-1.35,7.39-2.6,2.34-1.26,4.52-2.77,6.54-4.54,2.01-1.77,3.77-3.61,5.27-5.52-.06,1.38-.09,2.68-.09,3.91s-.03,2.56-.09,4c-3.01,2.1-5.84,4.61-8.52,7.54-2.68,2.93-5.02,6.06-7.03,9.38-2.01,3.32-3.59,6.69-4.73,10.1-1.14,3.41-1.7,6.6-1.67,9.57,.03,2.96,.74,5.55,2.12,7.77,1.38,2.22,3.63,3.8,6.76,4.76,3.25,1.02,6.1,1.05,8.57,.09,2.46-.96,4.61-2.55,6.44-4.76,1.83-2.21,3.34-4.89,4.51-8.04,1.17-3.14,2.1-6.42,2.79-9.83,.69-3.41,1.13-6.77,1.31-10.06,.18-3.29,.18-6.23,0-8.8,5.17-2.15,9.4-4.88,12.71-8.17,3.31-3.29,6.04-6.76,8.2-10.42,.66-.9,.89-1.98,.68-3.23-.21-1.26-.72-2.34-1.53-3.23Z" style="fill: #0d0c23; fill-rule: evenodd;"/>
      <path d="M561.6,148.36c.18-1.38,.45-2.83,.81-4.36,.36-1.53,.81-3.01,1.35-4.45,.54-1.44,1.17-2.68,1.89-3.73,.72-1.05,1.49-1.8,2.3-2.25,.81-.45,1.64-.4,2.48,.13,.9,.54,1.46,1.68,1.67,3.41,.21,1.74,0,3.59-.63,5.57-.63,1.98-1.76,3.83-3.38,5.57-1.62,1.74-3.82,2.87-6.58,3.41-.12-.84-.09-1.94,.09-3.32Zm31.23,3.68c-.99-.3-1.94-.33-2.84-.09-.9,.24-1.47,.87-1.71,1.89-.48,1.92-1.25,3.88-2.3,5.88-1.05,2.01-2.34,3.91-3.87,5.7-1.53,1.8-3.26,3.38-5.18,4.76-1.93,1.38-3.94,2.37-6.04,2.96-2.1,.66-3.85,.73-5.23,.22-1.38-.51-2.48-1.38-3.29-2.6-.81-1.23-1.4-2.71-1.76-4.45-.36-1.74-.57-3.53-.63-5.39,3.43,.24,6.47-.37,9.15-1.84,2.67-1.47,4.94-3.41,6.8-5.84,1.86-2.42,3.27-5.15,4.24-8.17,.96-3.02,1.5-6.03,1.62-9.03,.06-2.81-.36-5.19-1.26-7.14-.9-1.95-2.12-3.46-3.65-4.54-1.53-1.08-3.29-1.71-5.27-1.89-1.98-.18-4,.09-6.04,.81-2.46,.84-4.55,2.2-6.26,4.09-1.71,1.89-3.14,4.07-4.28,6.56-1.14,2.48-2.04,5.16-2.7,8.04-.66,2.87-1.14,5.7-1.44,8.49-.27,2.5-.42,4.89-.47,7.19-.13,.29-.25,.57-.39,.89-.93,2.13-2.02,4.21-3.24,6.24-1.23,2.04-2.6,3.74-4.1,5.12-1.5,1.38-3.06,1.86-4.69,1.44-.96-.24-1.49-1.35-1.58-3.32-.09-1.98,.01-4.43,.31-7.36,.3-2.93,.65-6.11,1.04-9.52,.39-3.41,.58-6.67,.58-9.79,0-2.69-.51-5.28-1.53-7.77-1.02-2.48-2.42-4.55-4.19-6.2-1.77-1.65-3.83-2.74-6.17-3.28-2.34-.54-4.87-.18-7.57,1.08-2.71,1.26-4.85,3.02-6.44,5.3-1.59,2.28-3.05,4.67-4.37,7.18-.48-1.92-1.19-3.7-2.12-5.34-.93-1.65-2.07-3.08-3.42-4.31-1.35-1.23-2.87-2.18-4.55-2.87-1.68-.69-3.46-1.03-5.32-1.03s-3.47,.35-5,1.03c-1.53,.69-2.93,1.57-4.19,2.65-1.26,1.08-2.4,2.29-3.43,3.64-1.02,1.35-1.92,2.68-2.7,4-.12-1.56-.26-2.92-.4-4.09-.15-1.17-.42-2.15-.81-2.96-.39-.81-.95-1.42-1.67-1.84-.72-.42-1.74-.63-3.06-.63-.66,0-1.32,.13-1.98,.4-.66,.27-1.25,.65-1.76,1.12-.51,.48-.9,1.06-1.17,1.75-.27,.69-.34,1.48-.23,2.38,.06,.66,.23,1.45,.5,2.38,.27,.93,.52,2.14,.77,3.64,.24,1.5,.44,3.31,.59,5.43,.15,2.13,.19,4.73,.14,7.81-.06,3.08-.29,6.69-.68,10.82-.39,4.13-1.01,8.92-1.85,14.37-.12,1.26,.36,2.28,1.44,3.05,1.08,.78,2.31,1.23,3.69,1.35,1.38,.12,2.69-.12,3.92-.72,1.23-.6,1.94-1.65,2.12-3.14,.18-2.81,.53-5.81,1.04-8.98,.51-3.17,1.14-6.32,1.89-9.43,.75-3.11,1.61-6.08,2.57-8.89,.96-2.81,2.03-5.3,3.2-7.45,1.17-2.16,2.39-3.88,3.65-5.16,1.26-1.29,2.58-1.93,3.97-1.93,1.68,0,2.99,.76,3.92,2.29,.93,1.53,1.59,3.49,1.98,5.88,.39,2.4,.57,5.02,.54,7.86-.03,2.84-.15,5.58-.36,8.22-.21,2.64-.45,4.98-.72,7.05-.27,2.07-.47,3.49-.58,4.27,0,1.38,.52,2.47,1.58,3.28,1.05,.81,2.22,1.29,3.52,1.44,1.29,.15,2.51-.09,3.65-.72,1.14-.63,1.8-1.69,1.98-3.19,.6-4.31,1.43-8.64,2.48-12.98,1.05-4.34,2.25-8.23,3.61-11.68,1.35-3.44,2.85-6.26,4.51-8.44,1.65-2.18,3.41-3.28,5.27-3.28,.96,0,1.7,.66,2.21,1.98,.51,1.32,.77,3.11,.77,5.39,0,1.68-.14,3.4-.4,5.16-.27,1.77-.59,3.59-.95,5.48-.36,1.89-.68,3.82-.95,5.79-.27,1.98-.4,4.04-.4,6.2,0,1.5,.15,3.23,.45,5.21,.3,1.97,.87,3.85,1.71,5.61,.84,1.77,2,3.26,3.47,4.49,1.47,1.23,3.35,1.84,5.63,1.84,3.43,0,6.46-.73,9.1-2.2,2.64-1.47,4.91-3.38,6.81-5.75,.1-.12,.19-.26,.28-.38,.14,.35,.27,.72,.44,1.05,1.29,2.63,3.05,4.67,5.27,6.11,2.22,1.44,4.84,2.23,7.84,2.38,3,.15,6.28-.41,9.82-1.66,2.64-.96,4.94-2.16,6.89-3.59,1.95-1.44,3.71-3.19,5.27-5.25,1.56-2.07,2.99-4.45,4.28-7.14,1.29-2.7,2.6-5.78,3.92-9.25,.24-.96,.02-1.81-.67-2.56-.69-.75-1.53-1.27-2.52-1.57Z" style="fill: #0d0c23; fill-rule: evenodd;"/>
      <path d="M641.82,142.02c-.3,1.77-.71,3.71-1.22,5.84-.51,2.13-1.16,4.33-1.94,6.6-.78,2.28-1.74,4.33-2.88,6.15-1.14,1.83-2.45,3.28-3.92,4.36-1.47,1.08-3.17,1.53-5.09,1.35-.96-.12-1.7-.78-2.21-1.98-.51-1.2-.78-2.72-.81-4.58-.03-1.86,.14-3.89,.5-6.11,.36-2.21,.92-4.39,1.67-6.51,.75-2.12,1.67-4.09,2.75-5.88,1.08-1.8,2.33-3.19,3.74-4.18,1.41-.99,2.96-1.45,4.64-1.39,1.68,.06,3.49,.9,5.41,2.51-.12,.78-.33,2.05-.63,3.82Zm32.04,6.87c-.93-.48-1.89-.58-2.88-.31-.99,.27-1.7,1.18-2.12,2.74-.24,1.68-.78,3.65-1.62,5.93-.84,2.28-1.88,4.43-3.11,6.47-1.23,2.04-2.65,3.73-4.24,5.07-1.59,1.35-3.29,1.96-5.09,1.84-1.5-.12-2.56-.88-3.15-2.29-.6-1.41-.92-3.17-.95-5.3-.03-2.12,.18-4.52,.63-7.18,.45-2.66,.99-5.31,1.62-7.95,.63-2.63,1.28-5.16,1.94-7.59,.66-2.42,1.2-4.48,1.62-6.15,.48-1.5,.33-2.77-.45-3.82-.78-1.05-1.76-1.8-2.93-2.24-1.17-.45-2.36-.57-3.56-.36-1.2,.21-1.98,.85-2.34,1.93-3.55-3.05-6.96-4.7-10.23-4.94-3.28-.24-6.3,.48-9.06,2.16-2.77,1.68-5.21,4.1-7.35,7.28-2.13,3.17-3.86,6.63-5.19,10.37-1.32,3.74-2.15,7.56-2.48,11.45-.33,3.89-.08,7.44,.77,10.64s2.33,5.82,4.46,7.86c2.13,2.04,5.03,3.05,8.7,3.05,1.62,0,3.18-.33,4.69-.99,1.5-.66,2.88-1.44,4.15-2.34s2.37-1.84,3.34-2.83c.96-.99,1.71-1.81,2.25-2.47,.42,2.16,1.11,3.98,2.07,5.48,.96,1.5,2.06,2.73,3.29,3.68,1.23,.96,2.52,1.66,3.88,2.11,1.35,.45,2.66,.67,3.92,.67,2.83,0,5.47-.96,7.93-2.87,2.46-1.91,4.67-4.27,6.63-7.05,1.95-2.78,3.56-5.72,4.82-8.8,1.26-3.08,2.1-5.82,2.52-8.22,.42-.9,.34-1.84-.23-2.83-.57-.99-1.32-1.72-2.25-2.2Z" style="fill: #0d0c23; fill-rule: evenodd;"/>
      <path d="M836.11,198.47c-.51,2.03-1.31,3.76-2.39,5.16-1.08,1.41-2.43,2.14-4.06,2.2-1.02,.06-1.8-.48-2.34-1.62-.54-1.14-.92-2.61-1.13-4.4-.21-1.8-.3-3.8-.27-6.02,.03-2.21,.12-4.4,.27-6.56,.15-2.15,.33-4.16,.54-6.02,.21-1.86,.37-3.29,.49-4.31,2.04,.24,3.74,1.12,5.09,2.65,1.35,1.53,2.39,3.34,3.11,5.43,.72,2.1,1.14,4.36,1.26,6.78,.12,2.43-.08,4.65-.59,6.69Zm-32.63,0c-.51,2.03-1.31,3.76-2.39,5.16s-2.43,2.14-4.06,2.2c-1.02,.06-1.8-.48-2.34-1.62-.54-1.14-.92-2.61-1.13-4.4-.21-1.8-.3-3.8-.27-6.02,.03-2.21,.12-4.4,.27-6.56,.15-2.15,.33-4.16,.54-6.02,.21-1.86,.37-3.29,.5-4.31,2.04,.24,3.74,1.12,5.09,2.65,1.35,1.53,2.39,3.34,3.11,5.43,.72,2.1,1.14,4.36,1.26,6.78,.12,2.43-.08,4.65-.59,6.69Zm-33.48-51.01c-.06,1.44-.2,2.71-.41,3.82-.21,1.11-.49,1.81-.86,2.11-.66-.36-1.47-1.29-2.43-2.78-.96-1.5-1.71-3.19-2.25-5.07-.54-1.89-.71-3.74-.49-5.57,.21-1.83,1.16-3.25,2.84-4.27,.66-.36,1.23-.22,1.71,.4,.48,.63,.87,1.54,1.17,2.74,.3,1.2,.51,2.58,.63,4.13,.12,1.56,.15,3.05,.09,4.49Zm-7.98,17.92c-.93,.99-1.97,1.84-3.11,2.56-1.14,.72-2.31,1.26-3.52,1.62-1.2,.36-2.28,.45-3.24,.27-2.7-.54-4.78-1.71-6.22-3.5-1.44-1.8-2.36-3.91-2.75-6.33-.39-2.43-.35-5.02,.14-7.77,.48-2.75,1.29-5.31,2.43-7.68,1.14-2.37,2.52-4.4,4.15-6.11,1.62-1.71,3.4-2.77,5.32-3.19-.72,3.05-.96,6.21-.72,9.48,.24,3.26,1.02,6.33,2.34,9.2,.84,1.74,1.85,3.32,3.02,4.76,1.17,1.44,2.6,2.67,4.28,3.68-.48,1.02-1.19,2.02-2.12,3.01Zm99.73-17.02c.18-1.38,.45-2.83,.81-4.36,.36-1.53,.81-3.01,1.35-4.44,.54-1.44,1.17-2.68,1.9-3.73,.72-1.05,1.49-1.8,2.3-2.25s1.64-.4,2.48,.13c.9,.54,1.46,1.68,1.67,3.41,.21,1.74,0,3.59-.63,5.57-.63,1.98-1.76,3.83-3.38,5.57-1.62,1.74-3.82,2.87-6.58,3.41-.12-.84-.09-1.94,.09-3.32Zm36.33,0c.18-1.38,.45-2.83,.81-4.36,.36-1.53,.81-3.01,1.35-4.44,.54-1.44,1.17-2.68,1.89-3.73,.72-1.05,1.49-1.8,2.3-2.25,.81-.45,1.64-.4,2.48,.13,.9,.54,1.46,1.68,1.67,3.41,.21,1.74,0,3.59-.63,5.57-.63,1.98-1.76,3.83-3.38,5.57-1.62,1.74-3.82,2.87-6.58,3.41-.12-.84-.09-1.94,.09-3.32Zm33.76,5.25c-.69-.75-1.53-1.27-2.52-1.57-.99-.3-1.94-.33-2.84-.09-.9,.24-1.47,.87-1.71,1.89-.48,1.92-1.25,3.88-2.3,5.88-1.05,2.01-2.34,3.91-3.88,5.7s-3.26,3.38-5.18,4.76c-1.93,1.38-3.94,2.37-6.04,2.96-2.11,.66-3.85,.73-5.23,.23-1.38-.51-2.48-1.38-3.29-2.6-.81-1.23-1.39-2.71-1.76-4.45-.36-1.74-.57-3.53-.63-5.39,3.43,.24,6.47-.37,9.15-1.84,2.67-1.47,4.94-3.41,6.81-5.84,1.86-2.42,3.27-5.15,4.23-8.17,.96-3.02,1.5-6.03,1.62-9.03,.06-2.81-.36-5.19-1.26-7.14-.9-1.94-2.12-3.46-3.65-4.53-1.53-1.08-3.29-1.71-5.28-1.89-1.98-.18-4,.09-6.04,.81-2.46,.84-4.55,2.2-6.26,4.09-1.71,1.89-3.14,4.07-4.28,6.56-1.14,2.49-2.04,5.16-2.71,8.04-.66,2.87-1.14,5.7-1.44,8.49-.29,2.7-.45,5.29-.49,7.76-.23,.49-.47,.99-.73,1.49-1.05,2.01-2.34,3.91-3.88,5.7-1.53,1.8-3.26,3.38-5.18,4.76-1.92,1.38-3.94,2.37-6.04,2.96-2.11,.66-3.85,.73-5.23,.23-1.38-.51-2.48-1.38-3.29-2.6-.81-1.23-1.4-2.71-1.76-4.45-.36-1.74-.57-3.53-.63-5.39,3.43,.24,6.47-.37,9.15-1.84,2.67-1.47,4.94-3.41,6.8-5.84,1.86-2.42,3.27-5.15,4.24-8.17,.96-3.02,1.5-6.03,1.62-9.03,.06-2.81-.36-5.19-1.26-7.14-.9-1.94-2.12-3.46-3.65-4.53-1.53-1.08-3.29-1.71-5.27-1.89-1.98-.18-4,.09-6.04,.81-2.47,.84-4.55,2.2-6.26,4.09-1.71,1.89-3.14,4.07-4.28,6.56-1.14,2.49-2.04,5.16-2.7,8.04-.66,2.87-1.14,5.7-1.44,8.49-.17,1.57-.28,3.09-.37,4.59-.58,.49-1.15,.99-1.75,1.47-2.07,1.68-4.25,3.19-6.53,4.54-2.28,1.35-4.66,2.46-7.12,3.32-2.47,.87-4.99,1.39-7.57,1.57l5.59-59.63c.36-1.26,.18-2.36-.54-3.32-.72-.96-1.65-1.62-2.79-1.98-1.14-.36-2.36-.33-3.65,.09-1.29,.42-2.36,1.38-3.2,2.87-.42,2.28-.86,5.39-1.31,9.34-.45,3.95-.9,8.26-1.35,12.93-.45,4.67-.9,9.49-1.35,14.46-.45,4.97-.84,9.61-1.17,13.92-.02,.19-.03,.36-.04,.55-.53,.44-1.04,.89-1.58,1.33-2.07,1.68-4.25,3.19-6.53,4.54-2.28,1.35-4.66,2.46-7.12,3.32-2.46,.87-4.99,1.39-7.57,1.57l5.59-59.63c.36-1.26,.18-2.36-.54-3.32-.72-.96-1.65-1.62-2.8-1.98-1.14-.36-2.36-.33-3.65,.09-1.29,.42-2.36,1.38-3.2,2.87-.42,2.28-.86,5.39-1.3,9.34-.45,3.95-.9,8.26-1.35,12.93-.45,4.67-.9,9.49-1.35,14.46-.45,4.97-.84,9.61-1.17,13.92,0,.09-.01,.17-.02,.25-.94,.44-1.97,.82-3.09,1.14-1.14,.33-2.43,.53-3.87,.58,.24-1.08,.43-2.28,.58-3.59,.15-1.32,.27-2.69,.36-4.13,.09-1.44,.12-2.87,.09-4.31-.03-1.44-.11-2.75-.23-3.95-.3-2.57-.86-5.01-1.67-7.32-.81-2.3-1.91-4.23-3.29-5.79-1.38-1.56-3.11-2.6-5.19-3.14-2.07-.54-4.49-.36-7.25,.54-4.09-.54-7.77-.16-11.04,1.12-3.27,1.29-6.12,3.16-8.52,5.61-2.4,2.46-4.37,5.34-5.9,8.67-1.53,3.32-2.55,6.74-3.06,10.24-.22,1.48-.32,2.96-.35,4.44-.93,1.9-1.95,3.56-3.07,4.95-1.59,1.98-3.24,3.59-4.96,4.85-1.71,1.26-3.41,2.22-5.09,2.87-1.68,.66-3.19,1.11-4.51,1.35-1.56,.3-3.06,.33-4.51,.09-1.44-.24-2.77-.93-3.96-2.07-.96-.84-1.7-2.19-2.21-4.04-.51-1.86-.81-3.96-.9-6.33-.09-2.37,0-4.84,.27-7.41,.27-2.57,.74-5.01,1.4-7.32,.66-2.31,1.5-4.37,2.52-6.2,1.02-1.82,2.22-3.13,3.61-3.91,.78,.12,1.26,.58,1.44,1.39,.18,.81,.22,1.77,.13,2.87-.09,1.11-.22,2.25-.4,3.41-.18,1.17-.27,2.14-.27,2.92,.3,1.62,.89,2.87,1.76,3.77,.87,.9,1.85,1.42,2.93,1.57,1.08,.15,2.15-.1,3.2-.76,1.05-.66,1.9-1.71,2.57-3.14,.06,.06,.15,.09,.27,.09l1.26-11.41c.36-1.56,.12-2.93-.72-4.13-.84-1.2-1.95-1.89-3.34-2.07-1.74-2.51-4.1-3.85-7.08-4-2.97-.15-6.02,.82-9.15,2.92-1.92,1.38-3.62,3.28-5.09,5.7-1.47,2.43-2.67,5.12-3.6,8.08-.93,2.96-1.59,6.09-1.98,9.39-.39,3.29-.47,6.5-.23,9.61,.24,3.11,.8,6.05,1.67,8.8,.87,2.76,2.09,5.06,3.65,6.92,1.32,1.62,2.82,2.8,4.5,3.55,1.68,.75,3.44,1.21,5.27,1.39,1.83,.18,3.65,.1,5.45-.22,1.8-.33,3.52-.79,5.14-1.39,2.1-.78,4.27-1.77,6.49-2.96,2.22-1.2,4.36-2.63,6.4-4.31,1.08-.88,2.11-1.84,3.11-2.87,.45,1.13,.96,2.22,1.58,3.23,1.62,2.69,3.81,4.88,6.58,6.56,2.76,1.68,6.16,2.48,10.18,2.42,4.33-.06,8.32-1.15,11.99-3.28,3.67-2.12,6.67-5.25,9.01-9.39,3.51,0,6.96-.58,10.36-1.72-.03,.36-.06,.74-.08,1.09-.24,3.17-.36,5.33-.36,6.47-.06,1.98-.19,4.42-.4,7.32-.21,2.9-.35,5.96-.41,9.16-.06,3.2,.06,6.44,.36,9.7,.3,3.26,.93,6.23,1.89,8.89,.96,2.66,2.33,4.92,4.1,6.78,1.77,1.85,4.1,2.96,6.99,3.32,3.06,.42,5.71-.12,7.93-1.62,2.22-1.5,4.03-3.55,5.41-6.15,1.38-2.61,2.36-5.61,2.93-9.03,.57-3.41,.74-6.84,.5-10.29-.24-3.44-.87-6.69-1.9-9.74-1.02-3.05-2.43-5.57-4.24-7.55,1.08-.3,2.37-.87,3.88-1.71,1.5-.84,3.05-1.78,4.64-2.83,.39-.26,.78-.53,1.17-.79-.15,2.12-.22,3.63-.22,4.52-.06,1.98-.19,4.42-.41,7.32-.21,2.9-.34,5.96-.4,9.16-.06,3.2,.06,6.44,.36,9.7,.3,3.26,.93,6.23,1.89,8.89,.96,2.66,2.33,4.92,4.1,6.78,1.77,1.85,4.1,2.96,6.99,3.32,3.06,.42,5.71-.12,7.93-1.62,2.22-1.5,4.03-3.55,5.41-6.15,1.38-2.61,2.36-5.61,2.93-9.03,.57-3.41,.74-6.84,.5-10.29-.24-3.44-.87-6.69-1.89-9.74-1.02-3.05-2.43-5.57-4.24-7.55,1.08-.3,2.37-.87,3.88-1.71,1.5-.84,3.05-1.78,4.64-2.83,.83-.54,1.65-1.11,2.47-1.68,.31,2.93,.97,5.5,2.03,7.66,1.29,2.64,3.05,4.67,5.27,6.11,2.22,1.44,4.84,2.23,7.84,2.38,3,.15,6.28-.4,9.82-1.66,2.64-.96,4.94-2.15,6.89-3.59,1.95-1.44,3.71-3.19,5.27-5.25,.09-.12,.17-.25,.26-.37,.28,.84,.59,1.64,.95,2.39,1.29,2.64,3.05,4.67,5.27,6.11,2.22,1.44,4.84,2.23,7.84,2.38,3,.15,6.28-.4,9.82-1.66,2.65-.96,4.94-2.15,6.9-3.59,1.95-1.44,3.71-3.19,5.27-5.25,1.56-2.07,2.99-4.45,4.28-7.14,1.29-2.69,2.6-5.78,3.92-9.25,.24-.96,.01-1.81-.68-2.56Z" style="fill: #0d0c23; fill-rule: evenodd;"/>
    </g>
  </g>
</svg>