<?xml version="1.0" encoding="UTF-8"?>
<svg id="Layer_2" data-name="Layer 2" xmlns="http://www.w3.org/2000/svg" viewBox="0 0 330 330">
  <g id="Layer_2-2" data-name="Layer 2">
    <g id="DiscordLogo">
      <path d="M165.02,0C118.83,0,85.48,1.29,61.42,7.38c-.12,.03-.25,.06-.37,.09-.95,.24-1.88,.49-2.81,.75-.22,.06-.44,.12-.66,.19-.85,.24-1.68,.49-2.51,.75-.28,.09-.55,.17-.82,.26-.77,.25-1.53,.5-2.28,.76-.31,.11-.62,.22-.92,.33-.7,.25-1.41,.51-2.09,.77-.34,.13-.67,.27-1.01,.4-.64,.26-1.28,.51-1.91,.78-.4,.17-.78,.35-1.17,.52-.55,.25-1.1,.49-1.64,.74-.91,.43-1.79,.87-2.66,1.33-.28,.15-.55,.3-.82,.45-.62,.34-1.24,.68-1.85,1.03-.28,.16-.54,.33-.82,.5-.59,.35-1.17,.71-1.74,1.08-.26,.17-.51,.34-.76,.51-.58,.39-1.15,.78-1.71,1.18-.23,.16-.45,.33-.67,.49-.58,.43-1.14,.86-1.7,1.3-.19,.15-.38,.3-.56,.46-.59,.48-1.16,.97-1.73,1.48-.14,.13-.28,.25-.43,.38-.62,.56-1.23,1.14-1.82,1.73-.08,.08-.15,.15-.23,.23C3.44,48.21,0,89.44,0,165.01c0,151.24,13.75,164.99,164.98,164.99,46.19,0,79.54-1.29,103.6-7.38,.12-.03,.24-.06,.36-.09,.95-.24,1.89-.5,2.82-.76,.22-.06,.43-.12,.64-.18,.85-.24,1.69-.5,2.52-.75,.27-.08,.54-.17,.81-.26,.77-.25,1.54-.5,2.29-.76,.31-.11,.61-.22,.92-.33,.7-.25,1.41-.51,2.09-.77,.34-.13,.67-.27,1.01-.4,.64-.26,1.28-.51,1.91-.78,.39-.17,.77-.34,1.15-.51,.56-.25,1.12-.49,1.67-.75,.9-.43,1.79-.87,2.66-1.33,.28-.15,.55-.3,.83-.46,.62-.34,1.24-.67,1.84-1.02,.28-.16,.55-.33,.82-.5,.59-.35,1.17-.71,1.74-1.08,.26-.17,.51-.34,.76-.51,.58-.38,1.14-.77,1.7-1.17,.23-.16,.45-.33,.67-.5,.57-.43,1.14-.86,1.7-1.3,.19-.15,.38-.31,.57-.46,.59-.48,1.16-.97,1.73-1.47,.14-.13,.29-.25,.43-.38,.62-.56,1.22-1.14,1.82-1.72,.08-.08,.16-.15,.23-.23,22.3-22.35,25.74-63.59,25.74-139.15C330,13.75,316.25,0,165.02,0Z" style="fill: #5865f2; fill-rule: evenodd;"/>
      <path d="M244.35,92.78c-.06-.12-.17-.22-.3-.27-14.79-6.79-30.4-11.62-46.43-14.4-.3-.06-.6,.09-.75,.35-2.13,3.86-4.05,7.82-5.78,11.87-17.28-2.62-34.87-2.62-52.15,0-1.74-4.06-3.7-8.03-5.87-11.87-.15-.26-.45-.4-.75-.35-16.04,2.76-31.65,7.6-46.43,14.4-.13,.05-.23,.15-.31,.26-29.57,44.16-37.67,87.24-33.7,129.79,.02,.21,.13,.4,.3,.53,17.22,12.75,36.48,22.48,56.96,28.78,.3,.09,.61-.02,.8-.26,4.4-5.99,8.3-12.32,11.65-18.95,.18-.36,.04-.79-.32-.97-.03-.01-.05-.02-.08-.03-6.15-2.35-12.1-5.19-17.79-8.48-.35-.2-.46-.65-.26-1,.05-.08,.11-.15,.19-.21,1.2-.9,2.39-1.83,3.53-2.77,.21-.17,.49-.21,.74-.1,37.33,17.04,77.75,17.04,114.64,0,.25-.12,.54-.08,.75,.09,1.14,.94,2.34,1.88,3.54,2.78,.32,.24,.39,.7,.15,1.02-.06,.08-.13,.14-.21,.19-5.69,3.32-11.64,6.15-17.8,8.47-.38,.14-.56,.56-.42,.94,0,.03,.02,.05,.03,.07,3.41,6.59,7.3,12.92,11.64,18.94,.18,.25,.5,.36,.8,.27,20.52-6.28,39.81-16.01,57.05-28.78,.17-.12,.28-.32,.3-.52,4.76-49.19-7.97-91.91-33.73-129.79Zm-117.18,103.87c-11.24,0-20.5-10.31-20.5-22.98s9.08-22.98,20.5-22.98,20.68,10.4,20.5,22.98c0,12.67-9.08,22.98-20.5,22.98Zm75.8,0c-11.24,0-20.5-10.31-20.5-22.98s9.08-22.98,20.5-22.98,20.68,10.4,20.5,22.98c0,12.67-8.99,22.98-20.5,22.98Z" style="fill: #fff;"/>
    </g>
  </g>
</svg>