<?xml version="1.0" encoding="UTF-8"?>
<svg id="Layer_2" data-name="Layer 2" xmlns="http://www.w3.org/2000/svg" viewBox="0 0 330 330">
  <g id="Layer_2-2" data-name="Layer 2">
    <g id="GitHubLogo">
      <path d="M165.01,.45C118.89,.45,85.58,1.74,61.55,7.82c-.12,.03-.25,.06-.37,.09-.95,.24-1.88,.49-2.8,.75-.22,.06-.44,.12-.66,.19-.85,.24-1.68,.49-2.5,.75-.28,.09-.55,.17-.82,.26-.77,.25-1.53,.5-2.28,.76-.31,.11-.62,.22-.92,.33-.7,.25-1.4,.51-2.09,.77-.34,.13-.67,.27-1.01,.4-.64,.26-1.28,.51-1.9,.78-.4,.17-.78,.35-1.17,.52-.55,.24-1.1,.48-1.64,.74-.9,.43-1.79,.87-2.66,1.33-.28,.15-.55,.3-.82,.45-.62,.34-1.24,.67-1.84,1.03-.28,.16-.54,.33-.82,.49-.59,.35-1.17,.71-1.74,1.08-.26,.17-.5,.34-.76,.51-.58,.38-1.15,.77-1.7,1.17-.23,.16-.45,.33-.67,.49-.57,.43-1.14,.86-1.7,1.3-.19,.15-.38,.3-.56,.46-.59,.48-1.16,.97-1.73,1.47-.14,.13-.28,.25-.43,.38-.62,.56-1.22,1.14-1.82,1.72-.08,.08-.15,.15-.23,.23C3.65,48.59,.21,89.77,.21,165.23c0,151.04,13.73,164.77,164.77,164.77,46.13,0,79.44-1.29,103.47-7.37,.12-.03,.24-.06,.36-.09,.95-.24,1.89-.5,2.81-.76,.22-.06,.43-.12,.64-.18,.85-.24,1.69-.49,2.52-.75,.27-.08,.54-.17,.8-.26,.77-.25,1.54-.5,2.29-.76,.31-.11,.61-.22,.92-.33,.7-.25,1.41-.51,2.09-.77,.34-.13,.67-.27,1.01-.4,.64-.26,1.28-.51,1.91-.78,.39-.17,.76-.34,1.15-.51,.56-.25,1.12-.49,1.66-.75,.9-.43,1.79-.87,2.65-1.32,.28-.15,.55-.3,.83-.45,.62-.34,1.24-.67,1.84-1.02,.28-.16,.55-.33,.82-.5,.59-.35,1.17-.71,1.74-1.08,.26-.17,.51-.34,.76-.51,.57-.38,1.14-.77,1.7-1.17,.23-.16,.45-.33,.67-.5,.57-.42,1.14-.86,1.69-1.3,.19-.15,.38-.3,.57-.46,.59-.48,1.16-.97,1.72-1.47,.14-.13,.29-.25,.43-.38,.62-.56,1.22-1.13,1.81-1.72,.08-.08,.16-.15,.23-.23,22.27-22.32,25.7-63.5,25.7-138.96C329.78,14.18,316.05,.45,165.01,.45Z" style="fill: #fff; fill-rule: evenodd;"/>
      <path d="M204.01,329.52c114.7-3.31,125.99-27.46,125.99-164.53C330,13.75,316.25,0,165,0S0,13.75,0,165c0,137.43,11.36,161.34,126.88,164.56,1-1.25,1.38-2.82,1.38-4.41,0-3.44-.14-38.72-.21-50.86-41.76,8.79-50.57-19.51-50.57-19.51-6.83-16.8-16.68-21.28-16.68-21.28-13.63-9.02,1.03-8.84,1.03-8.84,15.07,1.03,23,15,23,15,13.39,22.23,35.15,15.81,43.7,12.09,1.36-9.39,5.24-15.81,9.53-19.44-33.34-3.67-68.39-16.16-68.39-71.91,0-15.88,5.86-28.86,15.46-39.04-1.55-3.68-6.7-18.48,1.47-38.5,0,0,12.61-3.92,41.29,14.9,11.98-3.23,24.82-4.84,37.59-4.89,12.75,.06,25.59,1.66,37.59,4.89,28.67-18.82,41.25-14.9,41.25-14.9,8.2,20.02,3.04,34.81,1.48,38.5,9.63,10.17,15.44,23.15,15.44,39.04,0,55.89-35.1,68.2-68.56,71.79,5.39,4.5,10.19,13.38,10.19,26.95s-.08,36.01-.14,51.26c-.03,7.55-.04,13.19-.04,14.77,0,1.5,.4,3.08,1.31,4.39h0Z" style="fill-rule: evenodd;"/>
    </g>
  </g>
</svg>