<?xml version="1.0" encoding="UTF-8"?>
<svg id="Layer_2" data-name="Layer 2" xmlns="http://www.w3.org/2000/svg" xmlns:xlink="http://www.w3.org/1999/xlink" viewBox="0 0 330 330">
  <defs>
    <radialGradient id="radial-gradient" cx="-1695.33" cy="2879.6" fx="-1695.33" fy="2879.6" r="17.28" gradientTransform="translate(-26468.14 -18599.36) rotate(164.25) scale(12.2 -8.79)" gradientUnits="userSpaceOnUse">
      <stop offset="0" stop-color="#ff005f"/>
      <stop offset="1" stop-color="#fc01d8"/>
    </radialGradient>
    <radialGradient id="radial-gradient-2" cx="-1426.42" cy="3042.36" fx="-1426.42" fy="3042.36" r="17.28" gradientTransform="translate(49304.02 -21394.36) rotate(-90) scale(15.25 -16.18)" gradientUnits="userSpaceOnUse">
      <stop offset="0" stop-color="#fc0"/>
      <stop offset=".12" stop-color="#fc0"/>
      <stop offset=".57" stop-color="#fe4a05"/>
      <stop offset=".69" stop-color="#ff0f3f"/>
      <stop offset="1" stop-color="#fe0657" stop-opacity="0"/>
    </radialGradient>
    <radialGradient id="radial-gradient-3" cx="-1007.17" cy="3129.27" fx="-1007.17" fy="3129.27" r="21.45" gradientTransform="translate(20633.04 6286.46) rotate(-59.87) scale(5.08 -6.61)" gradientUnits="userSpaceOnUse">
      <stop offset="0" stop-color="#fc0"/>
      <stop offset="1" stop-color="#fc0" stop-opacity="0"/>
    </radialGradient>
    <radialGradient id="radial-gradient-4" cx="-1840.29" cy="3224.07" fx="-1840.29" fy="3224.07" r="22.14" gradientTransform="translate(-19444.26 -5247.82) rotate(164.27) scale(9.42 -3.21)" gradientUnits="userSpaceOnUse">
      <stop offset="0" stop-color="#780cff"/>
      <stop offset="1" stop-color="#820bff" stop-opacity="0"/>
    </radialGradient>
    <radialGradient id="radial-gradient-5" cx="-1695.33" cy="2879.6" fx="-1695.33" fy="2879.6" r="17.28" xlink:href="#radial-gradient"/>
    <radialGradient id="radial-gradient-6" cx="-1426.42" fx="-1426.42" r="17.28" xlink:href="#radial-gradient-2"/>
    <radialGradient id="radial-gradient-7" cx="-1007.17" cy="3129.27" fx="-1007.17" fy="3129.27" r="21.45" xlink:href="#radial-gradient-3"/>
    <radialGradient id="radial-gradient-8" cx="-1840.29" cy="3224.07" fx="-1840.29" fy="3224.07" r="22.14" xlink:href="#radial-gradient-4"/>
    <radialGradient id="radial-gradient-9" cy="2879.6" fy="2879.6" r="17.28" xlink:href="#radial-gradient"/>
    <radialGradient id="radial-gradient-10" cx="-1007.17" cy="3129.27" fx="-1007.17" fy="3129.27" r="21.45" xlink:href="#radial-gradient-3"/>
    <radialGradient id="radial-gradient-11" cx="-1840.29" cy="3224.07" fx="-1840.29" fy="3224.07" r="22.14" xlink:href="#radial-gradient-4"/>
  </defs>
  <g id="Layer_2-2" data-name="Layer 2">
    <g id="InstagramLogo">
      <path d="M.01,158.05c0,2.29-.01,4.61-.01,6.96s0,4.84,.01,7.21c0-2.37,0-4.79,0-7.28,0-2.36,0-4.65,0-6.89Z" style="fill: none;"/>
      <path d="M165.02,0C118.83,0,85.48,1.29,61.42,7.38c-.12,.03-.25,.06-.37,.09-.95,.24-1.88,.49-2.81,.75-.22,.06-.44,.12-.66,.19-.85,.24-1.68,.49-2.51,.75-.28,.09-.55,.17-.82,.26-.77,.25-1.53,.5-2.28,.76-.31,.11-.62,.22-.92,.33-.7,.25-1.41,.51-2.09,.77-.34,.13-.67,.27-1.01,.4-.64,.26-1.28,.51-1.91,.78-.4,.17-.78,.35-1.17,.52-.55,.25-1.1,.49-1.64,.74-.91,.43-1.79,.87-2.66,1.33-.28,.15-.55,.3-.82,.45-.62,.34-1.24,.68-1.85,1.03-.28,.16-.54,.33-.82,.5-.59,.35-1.17,.71-1.74,1.08-.26,.17-.51,.34-.76,.51-.58,.39-1.15,.78-1.71,1.18-.23,.16-.45,.33-.67,.49-.58,.43-1.14,.86-1.7,1.3-.19,.15-.38,.3-.56,.46-.59,.48-1.16,.97-1.73,1.48-.14,.13-.28,.25-.43,.38-.62,.56-1.23,1.14-1.82,1.73-.08,.08-.15,.15-.23,.23C4.13,47.51,.23,86.89,.01,158.05c0,2.24,0,4.53,0,6.89,0,2.49,0,4.91,0,7.28,.47,144.47,16.18,157.78,164.97,157.78,46.19,0,79.54-1.29,103.6-7.38,.12-.03,.24-.06,.36-.09,.95-.24,1.89-.5,2.82-.76,.22-.06,.43-.12,.64-.18,.85-.24,1.69-.5,2.52-.75,.27-.08,.54-.17,.81-.26,.77-.25,1.54-.5,2.29-.76,.31-.11,.61-.22,.92-.33,.7-.25,1.41-.51,2.09-.77,.34-.13,.67-.27,1.01-.4,.64-.26,1.28-.51,1.91-.78,.39-.17,.77-.34,1.15-.51,.56-.25,1.12-.49,1.67-.75,.9-.43,1.79-.87,2.66-1.33,.28-.15,.55-.3,.83-.46,.62-.34,1.24-.67,1.84-1.02,.28-.16,.55-.33,.82-.5,.59-.35,1.17-.71,1.74-1.08,.26-.17,.51-.34,.76-.51,.58-.38,1.14-.77,1.7-1.17,.23-.16,.45-.33,.67-.5,.57-.43,1.14-.86,1.7-1.3,.19-.15,.38-.31,.57-.46,.59-.48,1.16-.97,1.73-1.47,.14-.13,.29-.25,.43-.38,.62-.56,1.22-1.14,1.82-1.72,.08-.08,.16-.15,.23-.23,22.3-22.35,25.74-63.59,25.74-139.15h0c0-151.24-13.75-164.99-164.98-164.99Zm121.99,215.52c-.61,13.05-2.68,21.96-5.7,29.76-3.14,8.06-7.34,14.9-14.16,21.72-6.82,6.82-13.65,11.02-21.72,14.15-7.81,3.03-16.73,5.1-29.79,5.7-13.09,.6-17.26,.74-50.58,.74s-37.5-.15-50.59-.74c-13.06-.6-21.98-2.66-29.78-5.7-8.06-3.13-14.91-7.33-21.73-14.15-6.82-6.81-11.01-13.66-14.15-21.72-3.03-7.8-5.1-16.71-5.7-29.76-.59-13.08-.74-17.24-.74-50.54s.15-37.48,.74-50.56c.59-13.05,2.66-21.96,5.7-29.76,3.14-8.06,7.34-14.9,14.16-21.72,6.82-6.82,13.67-11.01,21.74-14.14,7.8-3.03,16.72-5.1,29.78-5.7,13.09-.59,17.27-.74,50.57-.74h0c33.31,0,37.48,.15,50.57,.74,13.06,.6,21.98,2.66,29.8,5.7,8.08,3.13,14.9,7.32,21.73,14.14,6.82,6.82,11.02,13.66,14.16,21.72,3.02,7.8,5.09,16.71,5.7,29.76,.59,13.08,.74,17.26,.74,50.56s-.15,37.47-.74,50.55Z" style="fill: url(#radial-gradient);"/>
      <path d="M165.02,0C118.83,0,85.48,1.29,61.42,7.38c-.12,.03-.25,.06-.37,.09-.95,.24-1.88,.49-2.81,.75-.22,.06-.44,.12-.66,.19-.85,.24-1.68,.49-2.51,.75-.28,.09-.55,.17-.82,.26-.77,.25-1.53,.5-2.28,.76-.31,.11-.62,.22-.92,.33-.7,.25-1.41,.51-2.09,.77-.34,.13-.67,.27-1.01,.4-.64,.26-1.28,.51-1.91,.78-.4,.17-.78,.35-1.17,.52-.55,.25-1.1,.49-1.64,.74-.91,.43-1.79,.87-2.66,1.33-.28,.15-.55,.3-.82,.45-.62,.34-1.24,.68-1.85,1.03-.28,.16-.54,.33-.82,.5-.59,.35-1.17,.71-1.74,1.08-.26,.17-.51,.34-.76,.51-.58,.39-1.15,.78-1.71,1.18-.23,.16-.45,.33-.67,.49-.58,.43-1.14,.86-1.7,1.3-.19,.15-.38,.3-.56,.46-.59,.48-1.16,.97-1.73,1.48-.14,.13-.28,.25-.43,.38-.62,.56-1.23,1.14-1.82,1.73-.08,.08-.15,.15-.23,.23C4.13,47.51,.23,86.89,.01,158.05c0,2.24,0,4.53,0,6.89,0,2.49,0,4.91,0,7.28,.47,144.47,16.18,157.78,164.97,157.78,46.19,0,79.54-1.29,103.6-7.38,.12-.03,.24-.06,.36-.09,.95-.24,1.89-.5,2.82-.76,.22-.06,.43-.12,.64-.18,.85-.24,1.69-.5,2.52-.75,.27-.08,.54-.17,.81-.26,.77-.25,1.54-.5,2.29-.76,.31-.11,.61-.22,.92-.33,.7-.25,1.41-.51,2.09-.77,.34-.13,.67-.27,1.01-.4,.64-.26,1.28-.51,1.91-.78,.39-.17,.77-.34,1.15-.51,.56-.25,1.12-.49,1.67-.75,.9-.43,1.79-.87,2.66-1.33,.28-.15,.55-.3,.83-.46,.62-.34,1.24-.67,1.84-1.02,.28-.16,.55-.33,.82-.5,.59-.35,1.17-.71,1.74-1.08,.26-.17,.51-.34,.76-.51,.58-.38,1.14-.77,1.7-1.17,.23-.16,.45-.33,.67-.5,.57-.43,1.14-.86,1.7-1.3,.19-.15,.38-.31,.57-.46,.59-.48,1.16-.97,1.73-1.47,.14-.13,.29-.25,.43-.38,.62-.56,1.22-1.14,1.82-1.72,.08-.08,.16-.15,.23-.23,22.3-22.35,25.74-63.59,25.74-139.15h0c0-151.24-13.75-164.99-164.98-164.99Zm121.99,215.52c-.61,13.05-2.68,21.96-5.7,29.76-3.14,8.06-7.34,14.9-14.16,21.72-6.82,6.82-13.65,11.02-21.72,14.15-7.81,3.03-16.73,5.1-29.79,5.7-13.09,.6-17.26,.74-50.58,.74s-37.5-.15-50.59-.74c-13.06-.6-21.98-2.66-29.78-5.7-8.06-3.13-14.91-7.33-21.73-14.15-6.82-6.81-11.01-13.66-14.15-21.72-3.03-7.8-5.1-16.71-5.7-29.76-.59-13.08-.74-17.24-.74-50.54s.15-37.48,.74-50.56c.59-13.05,2.66-21.96,5.7-29.76,3.14-8.06,7.34-14.9,14.16-21.72,6.82-6.82,13.67-11.01,21.74-14.14,7.8-3.03,16.72-5.1,29.78-5.7,13.09-.59,17.27-.74,50.57-.74h0c33.31,0,37.48,.15,50.57,.74,13.06,.6,21.98,2.66,29.8,5.7,8.08,3.13,14.9,7.32,21.73,14.14,6.82,6.82,11.02,13.66,14.16,21.72,3.02,7.8,5.09,16.71,5.7,29.76,.59,13.08,.74,17.26,.74,50.56s-.15,37.47-.74,50.55Z" style="fill: url(#radial-gradient-2);"/>
      <path d="M165.02,0C118.83,0,85.48,1.29,61.42,7.38c-.12,.03-.25,.06-.37,.09-.95,.24-1.88,.49-2.81,.75-.22,.06-.44,.12-.66,.19-.85,.24-1.68,.49-2.51,.75-.28,.09-.55,.17-.82,.26-.77,.25-1.53,.5-2.28,.76-.31,.11-.62,.22-.92,.33-.7,.25-1.41,.51-2.09,.77-.34,.13-.67,.27-1.01,.4-.64,.26-1.28,.51-1.91,.78-.4,.17-.78,.35-1.17,.52-.55,.25-1.1,.49-1.64,.74-.91,.43-1.79,.87-2.66,1.33-.28,.15-.55,.3-.82,.45-.62,.34-1.24,.68-1.85,1.03-.28,.16-.54,.33-.82,.5-.59,.35-1.17,.71-1.74,1.08-.26,.17-.51,.34-.76,.51-.58,.39-1.15,.78-1.71,1.18-.23,.16-.45,.33-.67,.49-.58,.43-1.14,.86-1.7,1.3-.19,.15-.38,.3-.56,.46-.59,.48-1.16,.97-1.73,1.48-.14,.13-.28,.25-.43,.38-.62,.56-1.23,1.14-1.82,1.73-.08,.08-.15,.15-.23,.23C4.13,47.51,.23,86.89,.01,158.05c0,2.24,0,4.53,0,6.89,0,2.49,0,4.91,0,7.28,.47,144.47,16.18,157.78,164.97,157.78,46.19,0,79.54-1.29,103.6-7.38,.12-.03,.24-.06,.36-.09,.95-.24,1.89-.5,2.82-.76,.22-.06,.43-.12,.64-.18,.85-.24,1.69-.5,2.52-.75,.27-.08,.54-.17,.81-.26,.77-.25,1.54-.5,2.29-.76,.31-.11,.61-.22,.92-.33,.7-.25,1.41-.51,2.09-.77,.34-.13,.67-.27,1.01-.4,.64-.26,1.28-.51,1.91-.78,.39-.17,.77-.34,1.15-.51,.56-.25,1.12-.49,1.67-.75,.9-.43,1.79-.87,2.66-1.33,.28-.15,.55-.3,.83-.46,.62-.34,1.24-.67,1.84-1.02,.28-.16,.55-.33,.82-.5,.59-.35,1.17-.71,1.74-1.08,.26-.17,.51-.34,.76-.51,.58-.38,1.14-.77,1.7-1.17,.23-.16,.45-.33,.67-.5,.57-.43,1.14-.86,1.7-1.3,.19-.15,.38-.31,.57-.46,.59-.48,1.16-.97,1.73-1.47,.14-.13,.29-.25,.43-.38,.62-.56,1.22-1.14,1.82-1.72,.08-.08,.16-.15,.23-.23,22.3-22.35,25.74-63.59,25.74-139.15h0c0-151.24-13.75-164.99-164.98-164.99Zm121.99,215.52c-.61,13.05-2.68,21.96-5.7,29.76-3.14,8.06-7.34,14.9-14.16,21.72-6.82,6.82-13.65,11.02-21.72,14.15-7.81,3.03-16.73,5.1-29.79,5.7-13.09,.6-17.26,.74-50.58,.74s-37.5-.15-50.59-.74c-13.06-.6-21.98-2.66-29.78-5.7-8.06-3.13-14.91-7.33-21.73-14.15-6.82-6.81-11.01-13.66-14.15-21.72-3.03-7.8-5.1-16.71-5.7-29.76-.59-13.08-.74-17.24-.74-50.54s.15-37.48,.74-50.56c.59-13.05,2.66-21.96,5.7-29.76,3.14-8.06,7.34-14.9,14.16-21.72,6.82-6.82,13.67-11.01,21.74-14.14,7.8-3.03,16.72-5.1,29.78-5.7,13.09-.59,17.27-.74,50.57-.74h0c33.31,0,37.48,.15,50.57,.74,13.06,.6,21.98,2.66,29.8,5.7,8.08,3.13,14.9,7.32,21.73,14.14,6.82,6.82,11.02,13.66,14.16,21.72,3.02,7.8,5.09,16.71,5.7,29.76,.59,13.08,.74,17.26,.74,50.56s-.15,37.47-.74,50.55Z" style="fill: url(#radial-gradient-3);"/>
      <path d="M165.02,0C118.83,0,85.48,1.29,61.42,7.38c-.12,.03-.25,.06-.37,.09-.95,.24-1.88,.49-2.81,.75-.22,.06-.44,.12-.66,.19-.85,.24-1.68,.49-2.51,.75-.28,.09-.55,.17-.82,.26-.77,.25-1.53,.5-2.28,.76-.31,.11-.62,.22-.92,.33-.7,.25-1.41,.51-2.09,.77-.34,.13-.67,.27-1.01,.4-.64,.26-1.28,.51-1.91,.78-.4,.17-.78,.35-1.17,.52-.55,.25-1.1,.49-1.64,.74-.91,.43-1.79,.87-2.66,1.33-.28,.15-.55,.3-.82,.45-.62,.34-1.24,.68-1.85,1.03-.28,.16-.54,.33-.82,.5-.59,.35-1.17,.71-1.74,1.08-.26,.17-.51,.34-.76,.51-.58,.39-1.15,.78-1.71,1.18-.23,.16-.45,.33-.67,.49-.58,.43-1.14,.86-1.7,1.3-.19,.15-.38,.3-.56,.46-.59,.48-1.16,.97-1.73,1.48-.14,.13-.28,.25-.43,.38-.62,.56-1.23,1.14-1.82,1.73-.08,.08-.15,.15-.23,.23C4.13,47.51,.23,86.89,.01,158.05c0,2.24,0,4.53,0,6.89,0,2.49,0,4.91,0,7.28,.47,144.47,16.18,157.78,164.97,157.78,46.19,0,79.54-1.29,103.6-7.38,.12-.03,.24-.06,.36-.09,.95-.24,1.89-.5,2.82-.76,.22-.06,.43-.12,.64-.18,.85-.24,1.69-.5,2.52-.75,.27-.08,.54-.17,.81-.26,.77-.25,1.54-.5,2.29-.76,.31-.11,.61-.22,.92-.33,.7-.25,1.41-.51,2.09-.77,.34-.13,.67-.27,1.01-.4,.64-.26,1.28-.51,1.91-.78,.39-.17,.77-.34,1.15-.51,.56-.25,1.12-.49,1.67-.75,.9-.43,1.79-.87,2.66-1.33,.28-.15,.55-.3,.83-.46,.62-.34,1.24-.67,1.84-1.02,.28-.16,.55-.33,.82-.5,.59-.35,1.17-.71,1.74-1.08,.26-.17,.51-.34,.76-.51,.58-.38,1.14-.77,1.7-1.17,.23-.16,.45-.33,.67-.5,.57-.43,1.14-.86,1.7-1.3,.19-.15,.38-.31,.57-.46,.59-.48,1.16-.97,1.73-1.47,.14-.13,.29-.25,.43-.38,.62-.56,1.22-1.14,1.82-1.72,.08-.08,.16-.15,.23-.23,22.3-22.35,25.74-63.59,25.74-139.15h0c0-151.24-13.75-164.99-164.98-164.99Zm121.99,215.52c-.61,13.05-2.68,21.96-5.7,29.76-3.14,8.06-7.34,14.9-14.16,21.72-6.82,6.82-13.65,11.02-21.72,14.15-7.81,3.03-16.73,5.1-29.79,5.7-13.09,.6-17.26,.74-50.58,.74s-37.5-.15-50.59-.74c-13.06-.6-21.98-2.66-29.78-5.7-8.06-3.13-14.91-7.33-21.73-14.15-6.82-6.81-11.01-13.66-14.15-21.72-3.03-7.8-5.1-16.71-5.7-29.76-.59-13.08-.74-17.24-.74-50.54s.15-37.48,.74-50.56c.59-13.05,2.66-21.96,5.7-29.76,3.14-8.06,7.34-14.9,14.16-21.72,6.82-6.82,13.67-11.01,21.74-14.14,7.8-3.03,16.72-5.1,29.78-5.7,13.09-.59,17.27-.74,50.57-.74h0c33.31,0,37.48,.15,50.57,.74,13.06,.6,21.98,2.66,29.8,5.7,8.08,3.13,14.9,7.32,21.73,14.14,6.82,6.82,11.02,13.66,14.16,21.72,3.02,7.8,5.09,16.71,5.7,29.76,.59,13.08,.74,17.26,.74,50.56s-.15,37.47-.74,50.55Z" style="fill: url(#radial-gradient-4);"/>
      <ellipse cx="165.07" cy="164.98" rx="40.9" ry="40.87" style="fill: url(#radial-gradient-5);"/>
      <ellipse cx="165.07" cy="164.98" rx="40.9" ry="40.87" style="fill: url(#radial-gradient-6);"/>
      <ellipse cx="165.07" cy="164.98" rx="40.9" ry="40.87" style="fill: url(#radial-gradient-7);"/>
      <ellipse cx="165.07" cy="164.98" rx="40.9" ry="40.87" style="fill: url(#radial-gradient-8);"/>
      <path d="M260.71,92.66c-2.23-5.72-4.89-9.81-9.18-14.1-4.29-4.29-8.37-6.95-14.1-9.17-4.33-1.68-10.82-3.68-22.78-4.22-12.94-.59-16.82-.7-49.58-.7-4.09,0-7.74,0-11.01,0v-.03c-22.87,.03-27.25,.18-38.57,.69-11.96,.55-18.46,2.54-22.78,4.23-5.73,2.23-9.82,4.88-14.11,9.18-4.29,4.29-6.96,8.38-9.18,14.1-1.68,4.32-3.68,10.81-4.23,22.76-.59,12.92-.71,16.79-.71,49.53s.12,36.62,.71,49.55c.54,11.95,2.55,18.44,4.23,22.76,2.23,5.72,4.89,9.8,9.18,14.09,4.29,4.29,8.38,6.95,14.11,9.17,4.33,1.68,10.82,3.68,22.78,4.23,12.93,.59,16.82,.72,49.58,.72s36.65-.13,49.58-.72c11.96-.55,18.46-2.54,22.78-4.22,5.73-2.22,9.81-4.88,14.1-9.17,4.29-4.29,6.96-8.36,9.18-14.08,1.68-4.32,3.68-10.8,4.23-22.76,.59-12.92,.72-16.81,.72-49.53s-.13-36.6-.72-49.53c-.54-11.95-2.55-18.44-4.23-22.76Zm-95.64,135.27c-34.8,0-63.01-28.18-63.01-62.95s28.21-62.96,63.01-62.96c0,0,0,0,0,0h0s0,0,0,0c34.8,0,63,28.19,63,62.96s-28.2,62.95-63,62.95Zm65.49-113.69c-8.13,0-14.72-6.59-14.72-14.71s6.6-14.71,14.72-14.71h0c8.13,0,14.72,6.59,14.72,14.71s-6.6,14.71-14.72,14.71Z" style="fill: url(#radial-gradient-9);"/>
      <path d="M260.71,92.66c-2.23-5.72-4.89-9.81-9.18-14.1-4.29-4.29-8.37-6.95-14.1-9.17-4.33-1.68-10.82-3.68-22.78-4.22-12.94-.59-16.82-.7-49.58-.7-4.09,0-7.74,0-11.01,0v-.03c-22.87,.03-27.25,.18-38.57,.69-11.96,.55-18.46,2.54-22.78,4.23-5.73,2.23-9.82,4.88-14.11,9.18-4.29,4.29-6.96,8.38-9.18,14.1-1.68,4.32-3.68,10.81-4.23,22.76-.59,12.92-.71,16.79-.71,49.53s.12,36.62,.71,49.55c.54,11.95,2.55,18.44,4.23,22.76,2.23,5.72,4.89,9.8,9.18,14.09,4.29,4.29,8.38,6.95,14.11,9.17,4.33,1.68,10.82,3.68,22.78,4.23,12.93,.59,16.82,.72,49.58,.72s36.65-.13,49.58-.72c11.96-.55,18.46-2.54,22.78-4.22,5.73-2.22,9.81-4.88,14.1-9.17,4.29-4.29,6.96-8.36,9.18-14.08,1.68-4.32,3.68-10.8,4.23-22.76,.59-12.92,.72-16.81,.72-49.53s-.13-36.6-.72-49.53c-.54-11.95-2.55-18.44-4.23-22.76Zm-95.64,135.27c-34.8,0-63.01-28.18-63.01-62.95s28.21-62.96,63.01-62.96c0,0,0,0,0,0h0s0,0,0,0c34.8,0,63,28.19,63,62.96s-28.2,62.95-63,62.95Zm65.49-113.69c-8.13,0-14.72-6.59-14.72-14.71s6.6-14.71,14.72-14.71h0c8.13,0,14.72,6.59,14.72,14.71s-6.6,14.71-14.72,14.71Z" style="fill: url(#radial-gradient-2);"/>
      <path d="M260.71,92.66c-2.23-5.72-4.89-9.81-9.18-14.1-4.29-4.29-8.37-6.95-14.1-9.17-4.33-1.68-10.82-3.68-22.78-4.22-12.94-.59-16.82-.7-49.58-.7-4.09,0-7.74,0-11.01,0v-.03c-22.87,.03-27.25,.18-38.57,.69-11.96,.55-18.46,2.54-22.78,4.23-5.73,2.23-9.82,4.88-14.11,9.18-4.29,4.29-6.96,8.38-9.18,14.1-1.68,4.32-3.68,10.81-4.23,22.76-.59,12.92-.71,16.79-.71,49.53s.12,36.62,.71,49.55c.54,11.95,2.55,18.44,4.23,22.76,2.23,5.72,4.89,9.8,9.18,14.09,4.29,4.29,8.38,6.95,14.11,9.17,4.33,1.68,10.82,3.68,22.78,4.23,12.93,.59,16.82,.72,49.58,.72s36.65-.13,49.58-.72c11.96-.55,18.46-2.54,22.78-4.22,5.73-2.22,9.81-4.88,14.1-9.17,4.29-4.29,6.96-8.36,9.18-14.08,1.68-4.32,3.68-10.8,4.23-22.76,.59-12.92,.72-16.81,.72-49.53s-.13-36.6-.72-49.53c-.54-11.95-2.55-18.44-4.23-22.76Zm-95.64,135.27c-34.8,0-63.01-28.18-63.01-62.95s28.21-62.96,63.01-62.96c0,0,0,0,0,0h0s0,0,0,0c34.8,0,63,28.19,63,62.96s-28.2,62.95-63,62.95Zm65.49-113.69c-8.13,0-14.72-6.59-14.72-14.71s6.6-14.71,14.72-14.71h0c8.13,0,14.72,6.59,14.72,14.71s-6.6,14.71-14.72,14.71Z" style="fill: url(#radial-gradient-10);"/>
      <path d="M260.71,92.66c-2.23-5.72-4.89-9.81-9.18-14.1-4.29-4.29-8.37-6.95-14.1-9.17-4.33-1.68-10.82-3.68-22.78-4.22-12.94-.59-16.82-.7-49.58-.7-4.09,0-7.74,0-11.01,0v-.03c-22.87,.03-27.25,.18-38.57,.69-11.96,.55-18.46,2.54-22.78,4.23-5.73,2.23-9.82,4.88-14.11,9.18-4.29,4.29-6.96,8.38-9.18,14.1-1.68,4.32-3.68,10.81-4.23,22.76-.59,12.92-.71,16.79-.71,49.53s.12,36.62,.71,49.55c.54,11.95,2.55,18.44,4.23,22.76,2.23,5.72,4.89,9.8,9.18,14.09,4.29,4.29,8.38,6.95,14.11,9.17,4.33,1.68,10.82,3.68,22.78,4.23,12.93,.59,16.82,.72,49.58,.72s36.65-.13,49.58-.72c11.96-.55,18.46-2.54,22.78-4.22,5.73-2.22,9.81-4.88,14.1-9.17,4.29-4.29,6.96-8.36,9.18-14.08,1.68-4.32,3.68-10.8,4.23-22.76,.59-12.92,.72-16.81,.72-49.53s-.13-36.6-.72-49.53c-.54-11.95-2.55-18.44-4.23-22.76Zm-95.64,135.27c-34.8,0-63.01-28.18-63.01-62.95s28.21-62.96,63.01-62.96c0,0,0,0,0,0h0s0,0,0,0c34.8,0,63,28.19,63,62.96s-28.2,62.95-63,62.95Zm65.49-113.69c-8.13,0-14.72-6.59-14.72-14.71s6.6-14.71,14.72-14.71h0c8.13,0,14.72,6.59,14.72,14.71s-6.6,14.71-14.72,14.71Z" style="fill: url(#radial-gradient-11);"/>
      <polygon points="165.06 102.01 165.07 102.01 165.07 102.01 165.06 102.01" style="fill: #fff;"/>
      <path d="M281.31,84.66c-3.14-8.06-7.34-14.9-14.16-21.72-6.83-6.82-13.65-11.01-21.73-14.14-7.82-3.03-16.74-5.1-29.8-5.7-13.09-.59-17.25-.74-50.57-.74s-37.49,.15-50.57,.74c-13.06,.6-21.98,2.66-29.78,5.7-8.07,3.13-14.92,7.32-21.74,14.14-6.82,6.82-11.02,13.66-14.16,21.72-3.04,7.8-5.11,16.71-5.7,29.76-.59,13.08-.74,17.26-.74,50.56s.15,37.46,.74,50.54c.6,13.05,2.67,21.96,5.7,29.76,3.14,8.06,7.33,14.9,14.15,21.72,6.82,6.82,13.66,11.02,21.73,14.15,7.81,3.03,16.73,5.1,29.78,5.7,13.09,.59,17.27,.74,50.59,.74s37.49-.15,50.58-.74c13.06-.6,21.99-2.66,29.79-5.7,8.07-3.13,14.9-7.33,21.72-14.15,6.82-6.81,11.02-13.66,14.16-21.72,3.02-7.8,5.09-16.71,5.7-29.76,.59-13.08,.74-17.25,.74-50.55s-.15-37.48-.74-50.56c-.61-13.05-2.68-21.96-5.7-29.76Zm-16.38,129.82c-.55,11.95-2.55,18.44-4.23,22.76-2.22,5.72-4.89,9.8-9.18,14.08-4.29,4.29-8.37,6.95-14.1,9.17-4.32,1.69-10.82,3.68-22.78,4.22-12.93,.59-16.82,.72-49.58,.72s-36.65-.13-49.58-.72c-11.96-.55-18.46-2.55-22.78-4.23-5.73-2.22-9.82-4.88-14.11-9.17-4.29-4.29-6.95-8.37-9.18-14.09-1.68-4.32-3.68-10.8-4.23-22.76-.59-12.92-.71-16.81-.71-49.55s.12-36.6,.71-49.53c.55-11.95,2.55-18.44,4.23-22.76,2.22-5.72,4.89-9.81,9.18-14.1,4.29-4.29,8.38-6.95,14.11-9.18,4.33-1.69,10.82-3.68,22.78-4.23,11.32-.51,15.71-.66,38.57-.69v.03c3.27,0,6.91,0,11.01,0,32.76,0,36.64,.12,49.58,.7,11.96,.55,18.46,2.54,22.78,4.22,5.73,2.22,9.81,4.88,14.1,9.17,4.29,4.29,6.95,8.38,9.18,14.1,1.68,4.32,3.68,10.8,4.23,22.76,.59,12.93,.72,16.81,.72,49.53s-.13,36.6-.72,49.53Z" style="fill: #fff;"/>
      <path d="M230.56,84.82h0c-8.13,0-14.72,6.59-14.72,14.71s6.6,14.71,14.72,14.71,14.72-6.59,14.72-14.71-6.6-14.71-14.72-14.71Z" style="fill: #fff;"/>
      <path d="M165.07,102.01c-34.8,0-63.01,28.19-63.01,62.96s28.21,62.95,63.01,62.95,63-28.18,63-62.95-28.2-62.96-63-62.96Zm0,103.83c-22.59,0-40.9-18.3-40.9-40.87s18.31-40.87,40.9-40.87,40.9,18.3,40.9,40.87-18.31,40.87-40.9,40.87Z" style="fill: #fff;"/>
    </g>
  </g>
</svg>