<?xml version="1.0" encoding="UTF-8"?>
<svg id="Layer_2" data-name="Layer 2" xmlns="http://www.w3.org/2000/svg" viewBox="0 0 330 330">
  <g id="Layer_2-2" data-name="Layer 2">
    <g id="LinkedInLogo">
      <path d="M165.02,0C118.83,0,85.48,1.29,61.42,7.38c-.12,.03-.25,.06-.37,.09-.95,.24-1.88,.49-2.81,.75-.22,.06-.44,.12-.66,.19-.85,.24-1.68,.49-2.51,.75-.28,.09-.55,.17-.82,.26-.77,.25-1.53,.5-2.28,.76-.31,.11-.62,.22-.92,.33-.7,.25-1.41,.51-2.09,.77-.34,.13-.67,.27-1.01,.4-.64,.26-1.28,.51-1.91,.78-.4,.17-.78,.35-1.17,.52-.55,.25-1.1,.49-1.64,.74-.91,.43-1.79,.87-2.66,1.33-.28,.15-.55,.3-.82,.45-.62,.34-1.24,.68-1.85,1.03-.28,.16-.54,.33-.82,.5-.59,.35-1.17,.71-1.74,1.08-.26,.17-.51,.34-.76,.51-.58,.39-1.15,.78-1.71,1.18-.23,.16-.45,.33-.67,.49-.58,.43-1.14,.86-1.7,1.3-.19,.15-.38,.3-.56,.46-.59,.48-1.16,.97-1.73,1.48-.14,.13-.28,.25-.43,.38-.62,.56-1.23,1.14-1.82,1.73-.08,.08-.15,.15-.23,.23C3.44,48.21,0,89.44,0,165.01c0,151.24,13.75,164.99,164.98,164.99,46.19,0,79.54-1.29,103.6-7.38,.12-.03,.24-.06,.36-.09,.95-.24,1.89-.5,2.82-.76,.22-.06,.43-.12,.64-.18,.85-.24,1.69-.5,2.52-.75,.27-.08,.54-.17,.81-.26,.77-.25,1.54-.5,2.29-.76,.31-.11,.61-.22,.92-.33,.7-.25,1.41-.51,2.09-.77,.34-.13,.67-.27,1.01-.4,.64-.26,1.28-.51,1.91-.78,.39-.17,.77-.34,1.15-.51,.56-.25,1.12-.49,1.67-.75,.9-.43,1.79-.87,2.66-1.33,.28-.15,.55-.3,.83-.46,.62-.34,1.24-.67,1.84-1.02,.28-.16,.55-.33,.82-.5,.59-.35,1.17-.71,1.74-1.08,.26-.17,.51-.34,.76-.51,.58-.38,1.14-.77,1.7-1.17,.23-.16,.45-.33,.67-.5,.57-.43,1.14-.86,1.7-1.3,.19-.15,.38-.31,.57-.46,.59-.48,1.16-.97,1.73-1.47,.14-.13,.29-.25,.43-.38,.62-.56,1.22-1.14,1.82-1.72,.08-.08,.16-.15,.23-.23,22.3-22.35,25.74-63.59,25.74-139.15C330,13.75,316.25,0,165.02,0Z" style="fill: #0a66c2; fill-rule: evenodd;"/>
      <g>
        <polygon points="69.36 130.49 111.75 130.49 111.75 265.26 69.36 265.26 69.36 130.49" style="fill: #fff;"/>
        <path d="M90.55,64.74c13.51,0,24.45,10.95,24.45,24.45s-10.95,24.45-24.45,24.45-24.45-10.95-24.45-24.45,10.95-24.45,24.45-24.45h0Z" style="fill: #fff;"/>
        <path d="M214.59,130.49c-15.07,.73-29.13,7.78-38.72,19.43v-19.43h-42.39v134.76h42.39v-76.76c0-12.6,10.21-22.83,22.81-22.83,12.6,0,22.83,10.21,22.83,22.81v76.77h42.39v-72.27h0c0-33.96-3.8-62.49-49.31-62.49Z" style="fill: #fff;"/>
      </g>
    </g>
  </g>
</svg>